{"asset":{"version":"2.0","generator":"Blockbench 4.9.4 glTF exporter"},"scenes":[{"nodes":[35],"name":"blockbench_export"}],"scene":0,"nodes":[{"name":"cuboid","mesh":0},{"name":"cuboid","mesh":1},{"name":"cuboid","mesh":2},{"name":"cuboid","mesh":3},{"name":"cuboid","mesh":4},{"name":"cuboid","mesh":5},{"name":"cuboid","mesh":6},{"name":"cuboid","mesh":7},{"name":"cuboid","mesh":8},{"name":"cuboid","mesh":9},{"name":"cuboid","mesh":10},{"name":"cuboid","mesh":11},{"name":"cuboid","mesh":12},{"name":"cuboid","mesh":13},{"name":"cuboid","mesh":14},{"name":"cuboid","mesh":15},{"name":"cuboid","mesh":16},{"name":"cuboid","mesh":17},{"name":"cuboid","mesh":18},{"translation":[0.0640625,0.2625000000000004,0.25],"name":"56739c0f-19bc-9df4-f745-f5a36018ab50"},{"translation":[0,0.25,0],"name":"854d9a75-2666-0ac6-7db9-ca8167c28348","children":[19]},{"rotation":[0.16345943220231135,0.3048787340653245,-0.37470168090112477,0.8601910380076596],"translation":[-0.4117669543163491,-0.4596610629059409,-0.08151831108740837],"name":"f2bae7ea-3ce3-8669-69a5-9515e75448bf"},{"rotation":[-0.19342129726665225,-0.025464396871748878,-0.1280181680365092,0.9723945263668545],"translation":[0.14375000000000004,-0.125,0],"name":"691e449a-c872-e9f8-fe96-277d04e391c3","children":[21]},{"rotation":[0.573576436351046,0,0,0.8191520442889918],"translation":[0.25468749999999996,0.18750000000000022,-1.0408340855860843e-17],"name":"302bfa22-3a5f-16ec-ba44-2741f3115825","children":[22]},{"translation":[-0.14375000000000004,-0.125,0],"name":"b5cbc671-4eec-e4b8-9260-51c9f621bdb9"},{"rotation":[0.39388354564494943,-0.15317293372816718,0.32848041641480613,0.8446859895104364],"translation":[-0.25468749999999996,0.18750000000000022,-1.0408340855860843e-17],"name":"8205aad4-e590-0599-eca8-604797f34692","children":[24]},{"rotation":[0,-0.13052619222005157,0,0.9914448613738104],"translation":[0,0.5,0],"name":"9a05dda4-bad6-20f2-b46a-cb950b71281f","children":[20,23,25]},{"translation":[0.15624999999999997,0.375,-0.012500000000000008],"name":"11cc8afe-9d42-a3ce-c5e9-5f619848b45f"},{"translation":[-0.15624999999999997,0.375,-0.012500000000000006],"name":"e86ed4bf-9d25-afdc-1b2f-03ed497bd550"},{"name":"522dd603-fc34-6e71-d5f6-79d182a30544","children":[26,27,28]},{"rotation":[-0.7071067811865475,0,0,0.7071067811865476],"translation":[0,3.40625,-2.220446049250313e-16],"name":"plane","mesh":19},{"rotation":[-0.5,0.4999999999999999,0.5,0.5000000000000001],"translation":[0,3.40625,-2.220446049250313e-16],"name":"plane","mesh":20},{"name":"cuboid","mesh":21},{"rotation":[-0.5,0.4999999999999999,0.5,0.5000000000000001],"translation":[0,5.400000000000004,-2.220446049250313e-16],"name":"plane","mesh":22},{"rotation":[-0.7071067811865475,0,0,0.7071067811865476],"translation":[0,5.400000000000004,-2.220446049250313e-16],"name":"plane","mesh":23},{"children":[0,1,2,3,4,5,6,7,8,9,10,11,12,13,14,15,16,17,18,29,30,31,32,33,34]}],"bufferViews":[{"buffer":0,"byteOffset":0,"byteLength":288,"target":34962,"byteStride":12},{"buffer":0,"byteOffset":288,"byteLength":288,"target":34962,"byteStride":12},{"buffer":0,"byteOffset":576,"byteLength":192,"target":34962,"byteStride":8},{"buffer":0,"byteOffset":768,"byteLength":72,"target":34963},{"buffer":0,"byteOffset":840,"byteLength":1440,"target":34962,"byteStride":12},{"buffer":0,"byteOffset":2280,"byteLength":1440,"target":34962,"byteStride":12},{"buffer":0,"byteOffset":3720,"byteLength":960,"target":34962,"byteStride":8},{"buffer":0,"byteOffset":4680,"byteLength":360,"target":34963},{"buffer":0,"byteOffset":5040,"byteLength":288,"target":34962,"byteStride":12},{"buffer":0,"byteOffset":5328,"byteLength":288,"target":34962,"byteStride":12},{"buffer":0,"byteOffset":5616,"byteLength":192,"target":34962,"byteStride":8},{"buffer":0,"byteOffset":5808,"byteLength":72,"target":34963},{"buffer":0,"byteOffset":5880,"byteLength":288,"target":34962,"byteStride":12},{"buffer":0,"byteOffset":6168,"byteLength":288,"target":34962,"byteStride":12},{"buffer":0,"byteOffset":6456,"byteLength":192,"target":34962,"byteStride":8},{"buffer":0,"byteOffset":6648,"byteLength":72,"target":34963},{"buffer":0,"byteOffset":6720,"byteLength":288,"target":34962,"byteStride":12},{"buffer":0,"byteOffset":7008,"byteLength":288,"target":34962,"byteStride":12},{"buffer":0,"byteOffset":7296,"byteLength":192,"target":34962,"byteStride":8},{"buffer":0,"byteOffset":7488,"byteLength":72,"target":34963},{"buffer":0,"byteOffset":7560,"byteLength":288,"target":34962,"byteStride":12},{"buffer":0,"byteOffset":7848,"byteLength":288,"target":34962,"byteStride":12},{"buffer":0,"byteOffset":8136,"byteLength":192,"target":34962,"byteStride":8},{"buffer":0,"byteOffset":8328,"byteLength":72,"target":34963},{"buffer":0,"byteOffset":8400,"byteLength":288,"target":34962,"byteStride":12},{"buffer":0,"byteOffset":8688,"byteLength":288,"target":34962,"byteStride":12},{"buffer":0,"byteOffset":8976,"byteLength":192,"target":34962,"byteStride":8},{"buffer":0,"byteOffset":9168,"byteLength":72,"target":34963},{"buffer":0,"byteOffset":9240,"byteLength":288,"target":34962,"byteStride":12},{"buffer":0,"byteOffset":9528,"byteLength":288,"target":34962,"byteStride":12},{"buffer":0,"byteOffset":9816,"byteLength":192,"target":34962,"byteStride":8},{"buffer":0,"byteOffset":10008,"byteLength":72,"target":34963},{"buffer":0,"byteOffset":10080,"byteLength":288,"target":34962,"byteStride":12},{"buffer":0,"byteOffset":10368,"byteLength":288,"target":34962,"byteStride":12},{"buffer":0,"byteOffset":10656,"byteLength":192,"target":34962,"byteStride":8},{"buffer":0,"byteOffset":10848,"byteLength":72,"target":34963},{"buffer":0,"byteOffset":10920,"byteLength":288,"target":34962,"byteStride":12},{"buffer":0,"byteOffset":11208,"byteLength":288,"target":34962,"byteStride":12},{"buffer":0,"byteOffset":11496,"byteLength":192,"target":34962,"byteStride":8},{"buffer":0,"byteOffset":11688,"byteLength":72,"target":34963},{"buffer":0,"byteOffset":11760,"byteLength":288,"target":34962,"byteStride":12},{"buffer":0,"byteOffset":12048,"byteLength":288,"target":34962,"byteStride":12},{"buffer":0,"byteOffset":12336,"byteLength":192,"target":34962,"byteStride":8},{"buffer":0,"byteOffset":12528,"byteLength":72,"target":34963},{"buffer":0,"byteOffset":12600,"byteLength":288,"target":34962,"byteStride":12},{"buffer":0,"byteOffset":12888,"byteLength":288,"target":34962,"byteStride":12},{"buffer":0,"byteOffset":13176,"byteLength":192,"target":34962,"byteStride":8},{"buffer":0,"byteOffset":13368,"byteLength":72,"target":34963},{"buffer":0,"byteOffset":13440,"byteLength":288,"target":34962,"byteStride":12},{"buffer":0,"byteOffset":13728,"byteLength":288,"target":34962,"byteStride":12},{"buffer":0,"byteOffset":14016,"byteLength":192,"target":34962,"byteStride":8},{"buffer":0,"byteOffset":14208,"byteLength":72,"target":34963},{"buffer":0,"byteOffset":14280,"byteLength":288,"target":34962,"byteStride":12},{"buffer":0,"byteOffset":14568,"byteLength":288,"target":34962,"byteStride":12},{"buffer":0,"byteOffset":14856,"byteLength":192,"target":34962,"byteStride":8},{"buffer":0,"byteOffset":15048,"byteLength":72,"target":34963},{"buffer":0,"byteOffset":15120,"byteLength":288,"target":34962,"byteStride":12},{"buffer":0,"byteOffset":15408,"byteLength":288,"target":34962,"byteStride":12},{"buffer":0,"byteOffset":15696,"byteLength":192,"target":34962,"byteStride":8},{"buffer":0,"byteOffset":15888,"byteLength":72,"target":34963},{"buffer":0,"byteOffset":15960,"byteLength":288,"target":34962,"byteStride":12},{"buffer":0,"byteOffset":16248,"byteLength":288,"target":34962,"byteStride":12},{"buffer":0,"byteOffset":16536,"byteLength":192,"target":34962,"byteStride":8},{"buffer":0,"byteOffset":16728,"byteLength":72,"target":34963},{"buffer":0,"byteOffset":16800,"byteLength":288,"target":34962,"byteStride":12},{"buffer":0,"byteOffset":17088,"byteLength":288,"target":34962,"byteStride":12},{"buffer":0,"byteOffset":17376,"byteLength":192,"target":34962,"byteStride":8},{"buffer":0,"byteOffset":17568,"byteLength":72,"target":34963},{"buffer":0,"byteOffset":17640,"byteLength":288,"target":34962,"byteStride":12},{"buffer":0,"byteOffset":17928,"byteLength":288,"target":34962,"byteStride":12},{"buffer":0,"byteOffset":18216,"byteLength":192,"target":34962,"byteStride":8},{"buffer":0,"byteOffset":18408,"byteLength":72,"target":34963},{"buffer":0,"byteOffset":18480,"byteLength":1440,"target":34962,"byteStride":12},{"buffer":0,"byteOffset":19920,"byteLength":1440,"target":34962,"byteStride":12},{"buffer":0,"byteOffset":21360,"byteLength":960,"target":34962,"byteStride":8},{"buffer":0,"byteOffset":22320,"byteLength":360,"target":34963},{"buffer":0,"byteOffset":22680,"byteLength":48,"target":34962,"byteStride":12},{"buffer":0,"byteOffset":22728,"byteLength":48,"target":34962,"byteStride":12},{"buffer":0,"byteOffset":22776,"byteLength":32,"target":34962,"byteStride":8},{"buffer":0,"byteOffset":22808,"byteLength":12,"target":34963},{"buffer":0,"byteOffset":22820,"byteLength":48,"target":34962,"byteStride":12},{"buffer":0,"byteOffset":22868,"byteLength":48,"target":34962,"byteStride":12},{"buffer":0,"byteOffset":22916,"byteLength":32,"target":34962,"byteStride":8},{"buffer":0,"byteOffset":22948,"byteLength":12,"target":34963},{"buffer":0,"byteOffset":22960,"byteLength":1056,"target":34962,"byteStride":12},{"buffer":0,"byteOffset":24016,"byteLength":1056,"target":34962,"byteStride":12},{"buffer":0,"byteOffset":25072,"byteLength":704,"target":34962,"byteStride":8},{"buffer":0,"byteOffset":25776,"byteLength":264,"target":34963},{"buffer":0,"byteOffset":26040,"byteLength":48,"target":34962,"byteStride":12},{"buffer":0,"byteOffset":26088,"byteLength":48,"target":34962,"byteStride":12},{"buffer":0,"byteOffset":26136,"byteLength":32,"target":34962,"byteStride":8},{"buffer":0,"byteOffset":26168,"byteLength":12,"target":34963},{"buffer":0,"byteOffset":26180,"byteLength":48,"target":34962,"byteStride":12},{"buffer":0,"byteOffset":26228,"byteLength":48,"target":34962,"byteStride":12},{"buffer":0,"byteOffset":26276,"byteLength":32,"target":34962,"byteStride":8},{"buffer":0,"byteOffset":26308,"byteLength":12,"target":34963}],"buffers":[{"byteLength":26320,"uri":"data:application/octet-stream;base64,"}],"accessors":[{"bufferView":0,"componentType":5126,"count":24,"max":[1.0625,2.28125,1.0625],"min":[-1.0625,2.15625,-1.0625],"type":"VEC3"},{"bufferView":1,"componentType":5126,"count":24,"max":[1,1,1],"min":[-1,-1,-1],"type":"VEC3"},{"bufferView":2,"componentType":5126,"count":24,"max":[0.3984375,0.26953125],"min":[0,0],"type":"VEC2"},{"bufferView":3,"componentType":5123,"count":36,"max":[23],"min":[0],"type":"SCALAR"},{"bufferView":4,"componentType":5126,"count":120,"max":[1,0.125,1],"min":[-1,3.469446951953614e-18,-1],"type":"VEC3"},{"bufferView":5,"componentType":5126,"count":120,"max":[1,1,1],"min":[-1,-1,-1],"type":"VEC3"},{"bufferView":6,"componentType":5126,"count":120,"max":[0.5078125,0.26953125],"min":[0.13671875,0],"type":"VEC2"},{"bufferView":7,"componentType":5123,"count":180,"max":[119],"min":[0],"type":"SCALAR"},{"bufferView":8,"componentType":5126,"count":24,"max":[0.0625,2.09375,-0.8125],"min":[-0.0625,0.125,-0.9375],"type":"VEC3"},{"bufferView":9,"componentType":5126,"count":24,"max":[1,1,1],"min":[-1,-1,-1],"type":"VEC3"},{"bufferView":10,"componentType":5126,"count":24,"max":[0.19921875,0.1796875],"min":[0.15625,0.01953125],"type":"VEC2"},{"bufferView":11,"componentType":5123,"count":36,"max":[23],"min":[0],"type":"SCALAR"},{"bufferView":12,"componentType":5126,"count":24,"max":[-0.8125,2.09375,-0.8125],"min":[-0.9375,0.125,-0.9375],"type":"VEC3"},{"bufferView":13,"componentType":5126,"count":24,"max":[1,1,1],"min":[-1,-1,-1],"type":"VEC3"},{"bufferView":14,"componentType":5126,"count":24,"max":[0.24609375,0.19140625],"min":[0.15625,0.01953125],"type":"VEC2"},{"bufferView":15,"componentType":5123,"count":36,"max":[23],"min":[0],"type":"SCALAR"},{"bufferView":16,"componentType":5126,"count":24,"max":[0.9375,2.09375,-0.8125],"min":[0.8125,0.125,-0.9375],"type":"VEC3"},{"bufferView":17,"componentType":5126,"count":24,"max":[1,1,1],"min":[-1,-1,-1],"type":"VEC3"},{"bufferView":18,"componentType":5126,"count":24,"max":[0.19140625,0.3984375],"min":[0,0.171875],"type":"VEC2"},{"bufferView":19,"componentType":5123,"count":36,"max":[23],"min":[0],"type":"SCALAR"},{"bufferView":20,"componentType":5126,"count":24,"max":[0.5,2.09375,-0.8125],"min":[0.375,0.125,-0.9375],"type":"VEC3"},{"bufferView":21,"componentType":5126,"count":24,"max":[1,1,1],"min":[-1,-1,-1],"type":"VEC3"},{"bufferView":22,"componentType":5126,"count":24,"max":[0.1953125,0.3984375],"min":[0.046875,0.1484375],"type":"VEC2"},{"bufferView":23,"componentType":5123,"count":36,"max":[23],"min":[0],"type":"SCALAR"},{"bufferView":24,"componentType":5126,"count":24,"max":[-0.375,2.09375,-0.8125],"min":[-0.5,0.125,-0.9375],"type":"VEC3"},{"bufferView":25,"componentType":5126,"count":24,"max":[1,1,1],"min":[-1,-1,-1],"type":"VEC3"},{"bufferView":26,"componentType":5126,"count":24,"max":[0.2734375,0.3984375],"min":[0.09375,0.18359375],"type":"VEC2"},{"bufferView":27,"componentType":5123,"count":36,"max":[23],"min":[0],"type":"SCALAR"},{"bufferView":28,"componentType":5126,"count":24,"max":[-0.8125,2.09375,0.9375],"min":[-0.9375,0.125,0.8125],"type":"VEC3"},{"bufferView":29,"componentType":5126,"count":24,"max":[1,1,1],"min":[-1,-1,-1],"type":"VEC3"},{"bufferView":30,"componentType":5126,"count":24,"max":[0.203125,0.40234375],"min":[0.15625,0.16015625],"type":"VEC2"},{"bufferView":31,"componentType":5123,"count":36,"max":[23],"min":[0],"type":"SCALAR"},{"bufferView":32,"componentType":5126,"count":24,"max":[-0.375,2.09375,0.9375],"min":[-0.5,0.125,0.8125],"type":"VEC3"},{"bufferView":33,"componentType":5126,"count":24,"max":[1,1,1],"min":[-1,-1,-1],"type":"VEC3"},{"bufferView":34,"componentType":5126,"count":24,"max":[0.24609375,0.40234375],"min":[0.1796875,0.171875],"type":"VEC2"},{"bufferView":35,"componentType":5123,"count":36,"max":[23],"min":[0],"type":"SCALAR"},{"bufferView":36,"componentType":5126,"count":24,"max":[0.0625,2.09375,0.9375],"min":[-0.0625,0.125,0.8125],"type":"VEC3"},{"bufferView":37,"componentType":5126,"count":24,"max":[1,1,1],"min":[-1,-1,-1],"type":"VEC3"},{"bufferView":38,"componentType":5126,"count":24,"max":[0.3203125,0.3984375],"min":[0.19140625,0.1484375],"type":"VEC2"},{"bufferView":39,"componentType":5123,"count":36,"max":[23],"min":[0],"type":"SCALAR"},{"bufferView":40,"componentType":5126,"count":24,"max":[0.5,2.09375,0.9375],"min":[0.375,0.125,0.8125],"type":"VEC3"},{"bufferView":41,"componentType":5126,"count":24,"max":[1,1,1],"min":[-1,-1,-1],"type":"VEC3"},{"bufferView":42,"componentType":5126,"count":24,"max":[0.3671875,0.3984375],"min":[0.203125,0.18359375],"type":"VEC2"},{"bufferView":43,"componentType":5123,"count":36,"max":[23],"min":[0],"type":"SCALAR"},{"bufferView":44,"componentType":5126,"count":24,"max":[0.9375,2.09375,0.9375],"min":[0.8125,0.125,0.8125],"type":"VEC3"},{"bufferView":45,"componentType":5126,"count":24,"max":[1,1,1],"min":[-1,-1,-1],"type":"VEC3"},{"bufferView":46,"componentType":5126,"count":24,"max":[0.390625,0.51171875],"min":[0.12890625,0.16015625],"type":"VEC2"},{"bufferView":47,"componentType":5123,"count":36,"max":[23],"min":[0],"type":"SCALAR"},{"bufferView":48,"componentType":5126,"count":24,"max":[0.9375,2.09375,0.0625],"min":[0.8125,0.125,-0.0625],"type":"VEC3"},{"bufferView":49,"componentType":5126,"count":24,"max":[1,1,1],"min":[-1,-1,-1],"type":"VEC3"},{"bufferView":50,"componentType":5126,"count":24,"max":[0.40234375,0.51171875],"min":[0.16796875,0],"type":"VEC2"},{"bufferView":51,"componentType":5123,"count":36,"max":[23],"min":[0],"type":"SCALAR"},{"bufferView":52,"componentType":5126,"count":24,"max":[0.9375,2.09375,0.5],"min":[0.8125,0.125,0.375],"type":"VEC3"},{"bufferView":53,"componentType":5126,"count":24,"max":[1,1,1],"min":[-1,-1,-1],"type":"VEC3"},{"bufferView":54,"componentType":5126,"count":24,"max":[0.19921875,0.52734375],"min":[0,0.20703125],"type":"VEC2"},{"bufferView":55,"componentType":5123,"count":36,"max":[23],"min":[0],"type":"SCALAR"},{"bufferView":56,"componentType":5126,"count":24,"max":[0.9375,2.09375,-0.375],"min":[0.8125,0.125,-0.5],"type":"VEC3"},{"bufferView":57,"componentType":5126,"count":24,"max":[1,1,1],"min":[-1,-1,-1],"type":"VEC3"},{"bufferView":58,"componentType":5126,"count":24,"max":[0.21875,0.52734375],"min":[0.046875,0.1484375],"type":"VEC2"},{"bufferView":59,"componentType":5123,"count":36,"max":[23],"min":[0],"type":"SCALAR"},{"bufferView":60,"componentType":5126,"count":24,"max":[-0.8125,2.09375,0.5],"min":[-0.9375,0.125,0.375],"type":"VEC3"},{"bufferView":61,"componentType":5126,"count":24,"max":[1,1,1],"min":[-1,-1,-1],"type":"VEC3"},{"bufferView":62,"componentType":5126,"count":24,"max":[0.26953125,0.52734375],"min":[0.09375,0.18359375],"type":"VEC2"},{"bufferView":63,"componentType":5123,"count":36,"max":[23],"min":[0],"type":"SCALAR"},{"bufferView":64,"componentType":5126,"count":24,"max":[-0.8125,2.09375,0.0625],"min":[-0.9375,0.125,-0.0625],"type":"VEC3"},{"bufferView":65,"componentType":5126,"count":24,"max":[1,1,1],"min":[-1,-1,-1],"type":"VEC3"},{"bufferView":66,"componentType":5126,"count":24,"max":[0.31640625,0.52734375],"min":[0.15625,0.20703125],"type":"VEC2"},{"bufferView":67,"componentType":5123,"count":36,"max":[23],"min":[0],"type":"SCALAR"},{"bufferView":68,"componentType":5126,"count":24,"max":[-0.8125,2.09375,-0.375],"min":[-0.9375,0.125,-0.5],"type":"VEC3"},{"bufferView":69,"componentType":5126,"count":24,"max":[1,1,1],"min":[-1,-1,-1],"type":"VEC3"},{"bufferView":70,"componentType":5126,"count":24,"max":[0.36328125,0.52734375],"min":[0.16796875,0.16015625],"type":"VEC2"},{"bufferView":71,"componentType":5123,"count":36,"max":[23],"min":[0],"type":"SCALAR"},{"bufferView":72,"componentType":5126,"count":120,"max":[1,2.21875,1],"min":[-1,2.09375,-1],"type":"VEC3"},{"bufferView":73,"componentType":5126,"count":120,"max":[1,1,1],"min":[-1,-1,-1],"type":"VEC3"},{"bufferView":74,"componentType":5126,"count":120,"max":[0.515625,0.3828125],"min":[0.13671875,0],"type":"VEC2"},{"bufferView":75,"componentType":5123,"count":180,"max":[119],"min":[0],"type":"SCALAR"},{"bufferView":76,"componentType":5126,"count":4,"max":[0.09375,0,1.09375],"min":[-0.09375,0,-1.09375],"type":"VEC3"},{"bufferView":77,"componentType":5126,"count":4,"max":[0,1,0],"min":[0,1,0],"type":"VEC3"},{"bufferView":78,"componentType":5126,"count":4,"max":[0.375,0.53515625],"min":[0.36328125,0.3984375],"type":"VEC2"},{"bufferView":79,"componentType":5123,"count":6,"max":[3],"min":[0],"type":"SCALAR"},{"bufferView":80,"componentType":5126,"count":4,"max":[0.09375,0,1.09375],"min":[-0.09375,0,-1.09375],"type":"VEC3"},{"bufferView":81,"componentType":5126,"count":4,"max":[0,1,0],"min":[0,1,0],"type":"VEC3"},{"bufferView":82,"componentType":5126,"count":4,"max":[0.375,0.53515625],"min":[0.36328125,0.3984375],"type":"VEC2"},{"bufferView":83,"componentType":5123,"count":6,"max":[3],"min":[0],"type":"SCALAR"},{"bufferView":84,"componentType":5126,"count":88,"max":[0.21875,2.46875,0.03125],"min":[-0.21875,2.28125,-0.03125],"type":"VEC3"},{"bufferView":85,"componentType":5126,"count":88,"max":[1,1,1],"min":[-1,-1,-1],"type":"VEC3"},{"bufferView":86,"componentType":5126,"count":88,"max":[0.2421875,0.2265625],"min":[0,0],"type":"VEC2"},{"bufferView":87,"componentType":5123,"count":132,"max":[87],"min":[0],"type":"SCALAR"},{"bufferView":88,"componentType":5126,"count":4,"max":[0.09375,0,1.09375],"min":[-0.09375,0,-1.09375],"type":"VEC3"},{"bufferView":89,"componentType":5126,"count":4,"max":[0,1,0],"min":[0,1,0],"type":"VEC3"},{"bufferView":90,"componentType":5126,"count":4,"max":[0.38671875,0.53515625],"min":[0.375,0.3984375],"type":"VEC2"},{"bufferView":91,"componentType":5123,"count":6,"max":[3],"min":[0],"type":"SCALAR"},{"bufferView":92,"componentType":5126,"count":4,"max":[0.09375,0,1.09375],"min":[-0.09375,0,-1.09375],"type":"VEC3"},{"bufferView":93,"componentType":5126,"count":4,"max":[0,1,0],"min":[0,1,0],"type":"VEC3"},{"bufferView":94,"componentType":5126,"count":4,"max":[0.38671875,0.53515625],"min":[0.375,0.3984375],"type":"VEC2"},{"bufferView":95,"componentType":5123,"count":6,"max":[3],"min":[0],"type":"SCALAR"}],"materials":[{"pbrMetallicRoughness":{"metallicFactor":0,"roughnessFactor":1,"baseColorTexture":{"index":0}},"alphaMode":"MASK","alphaCutoff":0.05,"doubleSided":true}],"textures":[{"sampler":0,"source":0}],"samplers":[{"magFilter":9728,"minFilter":9728,"wrapS":33071,"wrapT":33071}],"images":[{"mimeType":"image/png","uri":"data:image/png;base64,"}],"meshes":[{"primitives":[{"mode":4,"attributes":{"POSITION":0,"NORMAL":1,"TEXCOORD_0":2},"indices":3,"material":0}]},{"primitives":[{"mode":4,"attributes":{"POSITION":4,"NORMAL":5,"TEXCOORD_0":6},"indices":7,"material":0}]},{"primitives":[{"mode":4,"attributes":{"POSITION":8,"NORMAL":9,"TEXCOORD_0":10},"indices":11,"material":0}]},{"primitives":[{"mode":4,"attributes":{"POSITION":12,"NORMAL":13,"TEXCOORD_0":14},"indices":15,"material":0}]},{"primitives":[{"mode":4,"attributes":{"POSITION":16,"NORMAL":17,"TEXCOORD_0":18},"indices":19,"material":0}]},{"primitives":[{"mode":4,"attributes":{"POSITION":20,"NORMAL":21,"TEXCOORD_0":22},"indices":23,"material":0}]},{"primitives":[{"mode":4,"attributes":{"POSITION":24,"NORMAL":25,"TEXCOORD_0":26},"indices":27,"material":0}]},{"primitives":[{"mode":4,"attributes":{"POSITION":28,"NORMAL":29,"TEXCOORD_0":30},"indices":31,"material":0}]},{"primitives":[{"mode":4,"attributes":{"POSITION":32,"NORMAL":33,"TEXCOORD_0":34},"indices":35,"material":0}]},{"primitives":[{"mode":4,"attributes":{"POSITION":36,"NORMAL":37,"TEXCOORD_0":38},"indices":39,"material":0}]},{"primitives":[{"mode":4,"attributes":{"POSITION":40,"NORMAL":41,"TEXCOORD_0":42},"indices":43,"material":0}]},{"primitives":[{"mode":4,"attributes":{"POSITION":44,"NORMAL":45,"TEXCOORD_0":46},"indices":47,"material":0}]},{"primitives":[{"mode":4,"attributes":{"POSITION":48,"NORMAL":49,"TEXCOORD_0":50},"indices":51,"material":0}]},{"primitives":[{"mode":4,"attributes":{"POSITION":52,"NORMAL":53,"TEXCOORD_0":54},"indices":55,"material":0}]},{"primitives":[{"mode":4,"attributes":{"POSITION":56,"NORMAL":57,"TEXCOORD_0":58},"indices":59,"material":0}]},{"primitives":[{"mode":4,"attributes":{"POSITION":60,"NORMAL":61,"TEXCOORD_0":62},"indices":63,"material":0}]},{"primitives":[{"mode":4,"attributes":{"POSITION":64,"NORMAL":65,"TEXCOORD_0":66},"indices":67,"material":0}]},{"primitives":[{"mode":4,"attributes":{"POSITION":68,"NORMAL":69,"TEXCOORD_0":70},"indices":71,"material":0}]},{"primitives":[{"mode":4,"attributes":{"POSITION":72,"NORMAL":73,"TEXCOORD_0":74},"indices":75,"material":0}]},{"primitives":[{"mode":4,"attributes":{"POSITION":76,"NORMAL":77,"TEXCOORD_0":78},"indices":79,"material":0}]},{"primitives":[{"mode":4,"attributes":{"POSITION":80,"NORMAL":81,"TEXCOORD_0":82},"indices":83,"material":0}]},{"primitives":[{"mode":4,"attributes":{"POSITION":84,"NORMAL":85,"TEXCOORD_0":86},"indices":87,"material":0}]},{"primitives":[{"mode":4,"attributes":{"POSITION":88,"NORMAL":89,"TEXCOORD_0":90},"indices":91,"material":0}]},{"primitives":[{"mode":4,"attributes":{"POSITION":92,"NORMAL":93,"TEXCOORD_0":94},"indices":95,"material":0}]}]}