{"asset":{"version":"2.0","generator":"Blockbench 4.9.4 glTF exporter"},"scenes":[{"nodes":[6],"name":"blockbench_export"}],"scene":0,"nodes":[{"name":"cuboid","mesh":0},{"name":"cuboid","mesh":1},{"name":"cuboid","mesh":2},{"rotation":[0,0,-1,6.123233995736766e-17],"translation":[-6.167905692361968e-18,-0.01741071428571428,-0.875],"name":"cuboid","mesh":3},{"rotation":[1.1407703020124334e-16,1.1407703020124272e-16,0.7071067811865456,0.7071067811865495],"name":"cylinder","mesh":4},{"translation":[6.167905692361968e-18,0.5017857142857143,0.375],"name":"cap","children":[3,4]},{"children":[0,1,2,5]}],"bufferViews":[{"buffer":0,"byteOffset":0,"byteLength":672,"target":34962,"byteStride":12},{"buffer":0,"byteOffset":672,"byteLength":672,"target":34962,"byteStride":12},{"buffer":0,"byteOffset":1344,"byteLength":448,"target":34962,"byteStride":8},{"buffer":0,"byteOffset":1792,"byteLength":168,"target":34963},{"buffer":0,"byteOffset":1960,"byteLength":288,"target":34962,"byteStride":12},{"buffer":0,"byteOffset":2248,"byteLength":288,"target":34962,"byteStride":12},{"buffer":0,"byteOffset":2536,"byteLength":192,"target":34962,"byteStride":8},{"buffer":0,"byteOffset":2728,"byteLength":72,"target":34963},{"buffer":0,"byteOffset":2800,"byteLength":288,"target":34962,"byteStride":12},{"buffer":0,"byteOffset":3088,"byteLength":288,"target":34962,"byteStride":12},{"buffer":0,"byteOffset":3376,"byteLength":192,"target":34962,"byteStride":8},{"buffer":0,"byteOffset":3568,"byteLength":72,"target":34963},{"buffer":0,"byteOffset":3640,"byteLength":672,"target":34962,"byteStride":12},{"buffer":0,"byteOffset":4312,"byteLength":672,"target":34962,"byteStride":12},{"buffer":0,"byteOffset":4984,"byteLength":448,"target":34962,"byteStride":8},{"buffer":0,"byteOffset":5432,"byteLength":168,"target":34963},{"buffer":0,"byteOffset":5600,"byteLength":1032,"target":34962,"byteStride":12},{"buffer":0,"byteOffset":6632,"byteLength":1032,"target":34962,"byteStride":12},{"buffer":0,"byteOffset":7664,"byteLength":688,"target":34962,"byteStride":8},{"buffer":0,"byteOffset":8352,"byteLength":228,"target":34963}],"buffers":[{"byteLength":8580,"uri":"data:application/octet-stream;base64,"}],"accessors":[{"bufferView":0,"componentType":5126,"count":56,"max":[0.5,0.5,0.375],"min":[-0.5,0,-0.375],"type":"VEC3"},{"bufferView":1,"componentType":5126,"count":56,"max":[1,1,1],"min":[-1,-1,-1],"type":"VEC3"},{"bufferView":2,"componentType":5126,"count":56,"max":[0.78125,0.765625],"min":[0,0],"type":"VEC2"},{"bufferView":3,"componentType":5123,"count":84,"max":[55],"min":[0],"type":"SCALAR"},{"bufferView":4,"componentType":5126,"count":24,"max":[0.40625,0.53125,0.40625],"min":[0.34375,0.46875,0.28125],"type":"VEC3"},{"bufferView":5,"componentType":5126,"count":24,"max":[1,1,1],"min":[-1,-1,-1],"type":"VEC3"},{"bufferView":6,"componentType":5126,"count":24,"max":[0.1875,0.328125],"min":[0.046875,0.25],"type":"VEC2"},{"bufferView":7,"componentType":5123,"count":36,"max":[23],"min":[0],"type":"SCALAR"},{"bufferView":8,"componentType":5126,"count":24,"max":[-0.34375,0.53125,0.40625],"min":[-0.40625,0.46875,0.28125],"type":"VEC3"},{"bufferView":9,"componentType":5126,"count":24,"max":[1,1,1],"min":[-1,-1,-1],"type":"VEC3"},{"bufferView":10,"componentType":5126,"count":24,"max":[0.515625,0.40625],"min":[0.046875,0.28125],"type":"VEC2"},{"bufferView":11,"componentType":5123,"count":36,"max":[23],"min":[0],"type":"SCALAR"},{"bufferView":12,"componentType":5126,"count":56,"max":[0.09375,0.140625,0.125],"min":[-0.09375,-0.109375,0.0625],"type":"VEC3"},{"bufferView":13,"componentType":5126,"count":56,"max":[1,1,1],"min":[-1,-1,-1],"type":"VEC3"},{"bufferView":14,"componentType":5126,"count":56,"max":[0.328125,0.2849390506744385],"min":[0,0.03125],"type":"VEC2"},{"bufferView":15,"componentType":5123,"count":84,"max":[55],"min":[0],"type":"SCALAR"},{"bufferView":16,"componentType":5126,"count":86,"max":[0.3732142746448517,0.5,0],"min":[-0.0017857142956927419,-0.5,-0.75],"type":"VEC3"},{"bufferView":17,"componentType":5126,"count":86,"max":[1,1,1],"min":[-1,-1,-1],"type":"VEC3"},{"bufferView":18,"componentType":5126,"count":86,"max":[0.925000011920929,0.828125],"min":[0,0],"type":"VEC2"},{"bufferView":19,"componentType":5123,"count":114,"max":[85],"min":[0],"type":"SCALAR"}],"materials":[{"pbrMetallicRoughness":{"metallicFactor":0,"roughnessFactor":1,"baseColorTexture":{"index":0}},"alphaMode":"MASK","alphaCutoff":0.05,"doubleSided":true}],"textures":[{"sampler":0,"source":0}],"samplers":[{"magFilter":9728,"minFilter":9728,"wrapS":33071,"wrapT":33071}],"images":[{"mimeType":"image/png","uri":"data:image/png;base64,"}],"meshes":[{"primitives":[{"mode":4,"attributes":{"POSITION":0,"NORMAL":1,"TEXCOORD_0":2},"indices":3,"material":0}]},{"primitives":[{"mode":4,"attributes":{"POSITION":4,"NORMAL":5,"TEXCOORD_0":6},"indices":7,"material":0}]},{"primitives":[{"mode":4,"attributes":{"POSITION":8,"NORMAL":9,"TEXCOORD_0":10},"indices":11,"material":0}]},{"primitives":[{"mode":4,"attributes":{"POSITION":12,"NORMAL":13,"TEXCOORD_0":14},"indices":15,"material":0}]},{"primitives":[{"mode":4,"attributes":{"POSITION":16,"NORMAL":17,"TEXCOORD_0":18},"indices":19,"material":0}]}]}