{"asset":{"version":"2.0","generator":"Blockbench 4.9.4 glTF exporter"},"scenes":[{"nodes":[3],"name":"blockbench_export"}],"scene":0,"nodes":[{"translation":[0,-1,0],"name":"floor","mesh":0},{"name":"walls","mesh":1},{"name":"woodfloor","mesh":2},{"children":[0,1,2]}],"bufferViews":[{"buffer":0,"byteOffset":0,"byteLength":288,"target":34962,"byteStride":12},{"buffer":0,"byteOffset":288,"byteLength":288,"target":34962,"byteStride":12},{"buffer":0,"byteOffset":576,"byteLength":192,"target":34962,"byteStride":8},{"buffer":0,"byteOffset":768,"byteLength":72,"target":34963},{"buffer":0,"byteOffset":840,"byteLength":816,"target":34962,"byteStride":12},{"buffer":0,"byteOffset":1656,"byteLength":816,"target":34962,"byteStride":12},{"buffer":0,"byteOffset":2472,"byteLength":544,"target":34962,"byteStride":8},{"buffer":0,"byteOffset":3016,"byteLength":204,"target":34963},{"buffer":0,"byteOffset":3220,"byteLength":480,"target":34962,"byteStride":12},{"buffer":0,"byteOffset":3700,"byteLength":480,"target":34962,"byteStride":12},{"buffer":0,"byteOffset":4180,"byteLength":320,"target":34962,"byteStride":8},{"buffer":0,"byteOffset":4500,"byteLength":120,"target":34963}],"buffers":[{"byteLength":4620,"uri":"data:application/octet-stream;base64,"}],"accessors":[{"bufferView":0,"componentType":5126,"count":24,"max":[7.5,1,8.75],"min":[-7.5,0.9375,-8.75],"type":"VEC3"},{"bufferView":1,"componentType":5126,"count":24,"max":[1,1,1],"min":[-1,-1,-1],"type":"VEC3"},{"bufferView":2,"componentType":5126,"count":24,"max":[0.744140625,0.2734375],"min":[0,0],"type":"VEC2"},{"bufferView":3,"componentType":5123,"count":36,"max":[23],"min":[0],"type":"SCALAR"},{"bufferView":4,"componentType":5126,"count":68,"max":[7.5,1.9375,8.75],"min":[-7.5,-1.0755285551056204e-16,-8.75],"type":"VEC3"},{"bufferView":5,"componentType":5126,"count":68,"max":[1,1,1],"min":[-1,0,-1],"type":"VEC3"},{"bufferView":6,"componentType":5126,"count":68,"max":[0.744140625,0.5478515625],"min":[0,0],"type":"VEC2"},{"bufferView":7,"componentType":5123,"count":102,"max":[67],"min":[0],"type":"SCALAR"},{"bufferView":8,"componentType":5126,"count":40,"max":[6.5,0.125,7.75],"min":[-6.5,0,-8.75],"type":"VEC3"},{"bufferView":9,"componentType":5126,"count":40,"max":[1,1,0],"min":[-1,0,-1],"type":"VEC3"},{"bufferView":10,"componentType":5126,"count":40,"max":[0.6708984375,0.53125],"min":[0.033203125,0.2734375],"type":"VEC2"},{"bufferView":11,"componentType":5123,"count":60,"max":[39],"min":[0],"type":"SCALAR"}],"materials":[{"pbrMetallicRoughness":{"metallicFactor":0,"roughnessFactor":1,"baseColorTexture":{"index":0}},"alphaMode":"MASK","alphaCutoff":0.05,"doubleSided":true}],"textures":[{"sampler":0,"source":0}],"samplers":[{"magFilter":9728,"minFilter":9728,"wrapS":33071,"wrapT":33071}],"images":[{"mimeType":"image/png","uri":"data:image/png;base64,"}],"meshes":[{"primitives":[{"mode":4,"attributes":{"POSITION":0,"NORMAL":1,"TEXCOORD_0":2},"indices":3,"material":0}]},{"primitives":[{"mode":4,"attributes":{"POSITION":4,"NORMAL":5,"TEXCOORD_0":6},"indices":7,"material":0}]},{"primitives":[{"mode":4,"attributes":{"POSITION":8,"NORMAL":9,"TEXCOORD_0":10},"indices":11,"material":0}]}]}