{"asset":{"version":"2.0","generator":"Blockbench 4.9.4 glTF exporter"},"scenes":[{"nodes":[21],"name":"blockbench_export"}],"scene":0,"nodes":[{"rotation":[-0.6532814824381882,0.2705980500730985,-0.27059805007309845,0.6532814824381883],"translation":[-3.469446951953614e-18,0.036458333333333315,6.938893903907228e-17],"name":"pyramid","mesh":0},{"rotation":[-0.1830127018922227,-0.6830127018922182,-0.1830127018922227,0.6830127018922185],"translation":[0.04375000000000007,0.0625,0],"name":"pyramid","mesh":1},{"translation":[-0.0625,0,0],"name":"lhand2","children":[1]},{"translation":[-0.25468750000000007,0.036458333333333426,5.898059818321144e-17],"name":"lshoulder","children":[2]},{"rotation":[-0.1830127018922227,0.6830127018922182,0.1830127018922227,0.6830127018922185],"translation":[-0.04375000000000007,0.0625,0],"name":"pyramid","mesh":2},{"translation":[-0.013426301697965937,0.08735795454545425,0.013489433011097285],"name":"cuboid","mesh":3},{"rotation":[0,0.3826834323650898,0,0.9238795325112867],"translation":[-0.013426301697965937,0.08735795454545425,0.013489433011097285],"name":"cuboid","mesh":4},{"translation":[-0.013426301697965937,0.08735795454545425,0.013489433011097285],"name":"cuboid","mesh":5},{"rotation":[-0.6455787559405883,-0.07099975787746252,-0.25783957289613396,0.715336185935175],"translation":[0.15373872854117554,-0.2748579545454545,0.01443857058739929],"name":"knife","children":[5,6,7]},{"translation":[0.06250000000000011,0,0],"name":"rhand","children":[4,8]},{"translation":[0.25468749999999996,0.03645833333333354,5.898059818321144e-17],"name":"rshoulder","children":[9]},{"rotation":[0.049723642642405155,0.1962666464807373,-0.11909752473422223,0.9720199290363121],"translation":[0.1875,0.28125,0.010416666666666682],"name":"pyramid","mesh":6},{"rotation":[0.049723642642405155,-0.1962666464807373,0.11909752473422223,0.9720199290363121],"translation":[-0.1875,0.28125,0.010416666666666682],"name":"pyramid","mesh":7},{"rotation":[0,0.3826834323650898,0,0.9238795325112867],"name":"pyramid","mesh":8},{"translation":[-3.469446951953614e-18,0.184375,6.938893903907228e-17],"name":"head","children":[11,12,13]},{"translation":[3.469446951953614e-18,0.4635416666666667,-6.938893903907228e-17],"name":"torso","children":[0,3,10,14]},{"rotation":[0,-1,0,6.123233995736766e-17],"name":"pyramid","mesh":9},{"translation":[0.15624999999999997,0.25,-0.012500000000000008],"name":"rleg","children":[16]},{"rotation":[0,-1,0,6.123233995736766e-17],"name":"pyramid","mesh":10},{"translation":[-0.15624999999999997,0.25,-0.012500000000000006],"name":"lleg","children":[18]},{"name":"goblin","children":[15,17,19]},{"children":[20]}],"bufferViews":[{"buffer":0,"byteOffset":0,"byteLength":288,"target":34962,"byteStride":12},{"buffer":0,"byteOffset":288,"byteLength":288,"target":34962,"byteStride":12},{"buffer":0,"byteOffset":576,"byteLength":192,"target":34962,"byteStride":8},{"buffer":0,"byteOffset":768,"byteLength":48,"target":34963},{"buffer":0,"byteOffset":816,"byteLength":144,"target":34962,"byteStride":12},{"buffer":0,"byteOffset":960,"byteLength":144,"target":34962,"byteStride":12},{"buffer":0,"byteOffset":1104,"byteLength":96,"target":34962,"byteStride":8},{"buffer":0,"byteOffset":1200,"byteLength":24,"target":34963},{"buffer":0,"byteOffset":1224,"byteLength":144,"target":34962,"byteStride":12},{"buffer":0,"byteOffset":1368,"byteLength":144,"target":34962,"byteStride":12},{"buffer":0,"byteOffset":1512,"byteLength":96,"target":34962,"byteStride":8},{"buffer":0,"byteOffset":1608,"byteLength":24,"target":34963},{"buffer":0,"byteOffset":1632,"byteLength":1536,"target":34962,"byteStride":12},{"buffer":0,"byteOffset":3168,"byteLength":1536,"target":34962,"byteStride":12},{"buffer":0,"byteOffset":4704,"byteLength":1024,"target":34962,"byteStride":8},{"buffer":0,"byteOffset":5728,"byteLength":372,"target":34963},{"buffer":0,"byteOffset":6100,"byteLength":288,"target":34962,"byteStride":12},{"buffer":0,"byteOffset":6388,"byteLength":288,"target":34962,"byteStride":12},{"buffer":0,"byteOffset":6676,"byteLength":192,"target":34962,"byteStride":8},{"buffer":0,"byteOffset":6868,"byteLength":72,"target":34963},{"buffer":0,"byteOffset":6940,"byteLength":288,"target":34962,"byteStride":12},{"buffer":0,"byteOffset":7228,"byteLength":288,"target":34962,"byteStride":12},{"buffer":0,"byteOffset":7516,"byteLength":192,"target":34962,"byteStride":8},{"buffer":0,"byteOffset":7708,"byteLength":72,"target":34963},{"buffer":0,"byteOffset":7780,"byteLength":288,"target":34962,"byteStride":12},{"buffer":0,"byteOffset":8068,"byteLength":288,"target":34962,"byteStride":12},{"buffer":0,"byteOffset":8356,"byteLength":192,"target":34962,"byteStride":8},{"buffer":0,"byteOffset":8548,"byteLength":48,"target":34963},{"buffer":0,"byteOffset":8596,"byteLength":288,"target":34962,"byteStride":12},{"buffer":0,"byteOffset":8884,"byteLength":288,"target":34962,"byteStride":12},{"buffer":0,"byteOffset":9172,"byteLength":192,"target":34962,"byteStride":8},{"buffer":0,"byteOffset":9364,"byteLength":48,"target":34963},{"buffer":0,"byteOffset":9412,"byteLength":288,"target":34962,"byteStride":12},{"buffer":0,"byteOffset":9700,"byteLength":288,"target":34962,"byteStride":12},{"buffer":0,"byteOffset":9988,"byteLength":192,"target":34962,"byteStride":8},{"buffer":0,"byteOffset":10180,"byteLength":48,"target":34963},{"buffer":0,"byteOffset":10228,"byteLength":144,"target":34962,"byteStride":12},{"buffer":0,"byteOffset":10372,"byteLength":144,"target":34962,"byteStride":12},{"buffer":0,"byteOffset":10516,"byteLength":96,"target":34962,"byteStride":8},{"buffer":0,"byteOffset":10612,"byteLength":24,"target":34963},{"buffer":0,"byteOffset":10636,"byteLength":144,"target":34962,"byteStride":12},{"buffer":0,"byteOffset":10780,"byteLength":144,"target":34962,"byteStride":12},{"buffer":0,"byteOffset":10924,"byteLength":96,"target":34962,"byteStride":8},{"buffer":0,"byteOffset":11020,"byteLength":24,"target":34963},{"buffer":0,"byteOffset":11044,"byteLength":12},{"buffer":0,"byteOffset":11056,"byteLength":36},{"buffer":0,"byteOffset":11092,"byteLength":20},{"buffer":0,"byteOffset":11112,"byteLength":60},{"buffer":0,"byteOffset":11172,"byteLength":20},{"buffer":0,"byteOffset":11192,"byteLength":80},{"buffer":0,"byteOffset":11272,"byteLength":20},{"buffer":0,"byteOffset":11292,"byteLength":60},{"buffer":0,"byteOffset":11352,"byteLength":20},{"buffer":0,"byteOffset":11372,"byteLength":80},{"buffer":0,"byteOffset":11452,"byteLength":20},{"buffer":0,"byteOffset":11472,"byteLength":80},{"buffer":0,"byteOffset":11552,"byteLength":20},{"buffer":0,"byteOffset":11572,"byteLength":80},{"buffer":0,"byteOffset":11652,"byteLength":20},{"buffer":0,"byteOffset":11672,"byteLength":80},{"buffer":0,"byteOffset":11752,"byteLength":16},{"buffer":0,"byteOffset":11768,"byteLength":64},{"buffer":0,"byteOffset":11832,"byteLength":16},{"buffer":0,"byteOffset":11848,"byteLength":64},{"buffer":0,"byteOffset":11912,"byteLength":16},{"buffer":0,"byteOffset":11928,"byteLength":64},{"buffer":0,"byteOffset":11992,"byteLength":20},{"buffer":0,"byteOffset":12012,"byteLength":80},{"buffer":0,"byteOffset":12092,"byteLength":24},{"buffer":0,"byteOffset":12116,"byteLength":96},{"buffer":0,"byteOffset":12212,"byteLength":16},{"buffer":0,"byteOffset":12228,"byteLength":64},{"buffer":0,"byteOffset":12292,"byteLength":16},{"buffer":0,"byteOffset":12308,"byteLength":64},{"buffer":0,"byteOffset":12372,"byteLength":16},{"buffer":0,"byteOffset":12388,"byteLength":64},{"buffer":0,"byteOffset":12452,"byteLength":8},{"buffer":0,"byteOffset":12460,"byteLength":32},{"buffer":0,"byteOffset":12492,"byteLength":8},{"buffer":0,"byteOffset":12500,"byteLength":32},{"buffer":0,"byteOffset":12532,"byteLength":8},{"buffer":0,"byteOffset":12540,"byteLength":32},{"buffer":0,"byteOffset":12572,"byteLength":8},{"buffer":0,"byteOffset":12580,"byteLength":32},{"buffer":0,"byteOffset":12612,"byteLength":8},{"buffer":0,"byteOffset":12620,"byteLength":32}],"buffers":[{"byteLength":12652,"uri":"data:application/octet-stream;base64,"}],"accessors":[{"bufferView":0,"componentType":5126,"count":24,"max":[0.1875,0.25,0.1875],"min":[-0.1875,-0.25,-0.1875],"type":"VEC3"},{"bufferView":1,"componentType":5126,"count":24,"max":[0.8675715923309326,0.5825332999229431,0.8171753287315369],"min":[-0.8171753287315369,-0.5517781376838684,-0.8675715923309326],"type":"VEC3"},{"bufferView":2,"componentType":5126,"count":24,"max":[0.4410584270954132,0.6514483690261841],"min":[0,0.0078125],"type":"VEC2"},{"bufferView":3,"componentType":5123,"count":24,"max":[23],"min":[0],"type":"SCALAR"},{"bufferView":4,"componentType":5126,"count":12,"max":[0.08124999701976776,-0.05000000074505806,0.10781250149011612],"min":[-0.08124999701976776,-0.36250001192092896,-0.0546875],"type":"VEC3"},{"bufferView":5,"componentType":5126,"count":12,"max":[0.8842635154724121,1,0.44213175773620605],"min":[-0.8842635154724121,0.15032480657100677,-0.9841833114624023],"type":"VEC3"},{"bufferView":6,"componentType":5126,"count":12,"max":[0.5274909734725952,0.5663138628005981],"min":[0.08339444547891617,0.125],"type":"VEC2"},{"bufferView":7,"componentType":5123,"count":12,"max":[11],"min":[0],"type":"SCALAR"},{"bufferView":8,"componentType":5126,"count":12,"max":[0.08124999701976776,-0.05000000074505806,0.10781250149011612],"min":[-0.08124999701976776,-0.36250001192092896,-0.0546875],"type":"VEC3"},{"bufferView":9,"componentType":5126,"count":12,"max":[0.8842635154724121,1,0.44213175773620605],"min":[-0.8842635154724121,0.15032480657100677,-0.9841833114624023],"type":"VEC3"},{"bufferView":10,"componentType":5126,"count":12,"max":[0.578125,0.5828055143356323],"min":[0.140625,0],"type":"VEC2"},{"bufferView":11,"componentType":5123,"count":12,"max":[11],"min":[0],"type":"SCALAR"},{"bufferView":12,"componentType":5126,"count":128,"max":[0.05000000074505806,0.34375,0.01875000074505806],"min":[-0.01875000074505806,0,-0.04374999925494194],"type":"VEC3"},{"bufferView":13,"componentType":5126,"count":128,"max":[0.9701424837112427,0.25628820061683655,1],"min":[-1,-1,-0.9433808326721191],"type":"VEC3"},{"bufferView":14,"componentType":5126,"count":128,"max":[0.1687624156475067,0.3053743839263916],"min":[0.03125,0.03125],"type":"VEC2"},{"bufferView":15,"componentType":5123,"count":186,"max":[127],"min":[0],"type":"SCALAR"},{"bufferView":16,"componentType":5126,"count":24,"max":[0.09375,0.0062500000931322575,0.03125],"min":[-0.03125,-0.03750000149011612,-0.03125],"type":"VEC3"},{"bufferView":17,"componentType":5126,"count":24,"max":[1,0.9987523555755615,0.9987523555755615],"min":[-1,-1,-0.9987523555755615],"type":"VEC3"},{"bufferView":18,"componentType":5126,"count":24,"max":[0.14061526954174042,0.14132648706436157],"min":[0,0.0625],"type":"VEC2"},{"bufferView":19,"componentType":5123,"count":36,"max":[23],"min":[0],"type":"SCALAR"},{"bufferView":20,"componentType":5126,"count":24,"max":[0.03125,-0.03125,0.0062500000931322575],"min":[-0.0062500000931322575,-0.15625,-0.03125],"type":"VEC3"},{"bufferView":21,"componentType":5126,"count":24,"max":[1,1,1],"min":[-1,-1,-1],"type":"VEC3"},{"bufferView":22,"componentType":5126,"count":24,"max":[0.375,0.78125],"min":[0.109375,0.015625],"type":"VEC2"},{"bufferView":23,"componentType":5123,"count":36,"max":[23],"min":[0],"type":"SCALAR"},{"bufferView":24,"componentType":5126,"count":24,"max":[0.23106569051742554,0.19706909358501434,0.12407521158456802],"min":[-0.06228317320346832,-0.1041666641831398,-0.06228317320346832],"type":"VEC3"},{"bufferView":25,"componentType":5126,"count":24,"max":[0.8338004350662231,0.6127150654792786,0.9026586413383484],"min":[-0.8338004350662231,-0.4865836501121521,-0.88936448097229],"type":"VEC3"},{"bufferView":26,"componentType":5126,"count":24,"max":[0.5897840857505798,0.484375],"min":[0.078125,0.19382691383361816],"type":"VEC2"},{"bufferView":27,"componentType":5123,"count":24,"max":[23],"min":[0],"type":"SCALAR"},{"bufferView":28,"componentType":5126,"count":24,"max":[0.06228317320346832,0.19706909358501434,0.12407521158456802],"min":[-0.23106569051742554,-0.1041666641831398,-0.06228317320346832],"type":"VEC3"},{"bufferView":29,"componentType":5126,"count":24,"max":[0.8338004350662231,0.6127150654792786,0.9026586413383484],"min":[-0.8338004350662231,-0.4865836501121521,-0.88936448097229],"type":"VEC3"},{"bufferView":30,"componentType":5126,"count":24,"max":[0.421875,0.5741591453552246],"min":[0.0008583032176829875,0],"type":"VEC2"},{"bufferView":31,"componentType":5123,"count":24,"max":[23],"min":[0],"type":"SCALAR"},{"bufferView":32,"componentType":5126,"count":24,"max":[0.2758883535861969,0.3645833432674408,0.1875],"min":[-0.1875,-0.010416666977107525,-0.2758883535861969],"type":"VEC3"},{"bufferView":33,"componentType":5126,"count":24,"max":[0.7723356485366821,0.6515048146247864,0.75196373462677],"min":[-0.75196373462677,-0.7290141582489014,-0.7723356485366821],"type":"VEC3"},{"bufferView":34,"componentType":5126,"count":24,"max":[0.4234375059604645,0.436787486076355],"min":[0.000004578190328174969,0],"type":"VEC2"},{"bufferView":35,"componentType":5123,"count":24,"max":[23],"min":[0],"type":"SCALAR"},{"bufferView":36,"componentType":5126,"count":12,"max":[0.125,0,0.15000000596046448],"min":[-0.125,-0.25,-0.10000000149011612],"type":"VEC3"},{"bufferView":37,"componentType":5126,"count":12,"max":[0.8638684153556824,1,0.4319342076778412],"min":[-0.8638684153556824,0.2591605484485626,-0.9284766912460327],"type":"VEC3"},{"bufferView":38,"componentType":5126,"count":12,"max":[0.4970945119857788,0.5230021476745605],"min":[0.05017415061593056,0.171875],"type":"VEC2"},{"bufferView":39,"componentType":5123,"count":12,"max":[11],"min":[0],"type":"SCALAR"},{"bufferView":40,"componentType":5126,"count":12,"max":[0.125,0,0.15000000596046448],"min":[-0.125,-0.25,-0.10000000149011612],"type":"VEC3"},{"bufferView":41,"componentType":5126,"count":12,"max":[0.8638684153556824,1,0.4319342076778412],"min":[-0.8638684153556824,0.2591605484485626,-0.9284766912460327],"type":"VEC3"},{"bufferView":42,"componentType":5126,"count":12,"max":[0.5279508233070374,0.5119593143463135],"min":[0.3763429820537567,0],"type":"VEC2"},{"bufferView":43,"componentType":5123,"count":12,"max":[11],"min":[0],"type":"SCALAR"},{"bufferView":44,"componentType":5126,"count":3,"max":[0.5],"min":[0],"type":"SCALAR"},{"bufferView":45,"componentType":5126,"count":3,"max":[3.469446951953614e-18,0.4635416567325592,-6.938893903907228e-17],"min":[3.469446951953614e-18,0.4322916567325592,-6.938893903907228e-17],"type":"VEC3"},{"bufferView":46,"componentType":5126,"count":5,"max":[2],"min":[0],"type":"SCALAR"},{"bufferView":47,"componentType":5126,"count":5,"max":[0,0.03750000149011612,0],"min":[0,0,0],"type":"VEC3"},{"bufferView":48,"componentType":5126,"count":5,"max":[2],"min":[0],"type":"SCALAR"},{"bufferView":49,"componentType":5126,"count":5,"max":[0.08715574443340302,0,0,1],"min":[0,0,0,0.9961947202682495],"type":"VEC4"},{"bufferView":50,"componentType":5126,"count":5,"max":[2],"min":[0],"type":"SCALAR"},{"bufferView":51,"componentType":5126,"count":5,"max":[3.469446951953614e-18,0.47604167461395264,-6.938893903907228e-17],"min":[3.469446951953614e-18,0.4635416567325592,-6.938893903907228e-17],"type":"VEC3"},{"bufferView":52,"componentType":5126,"count":5,"max":[2],"min":[0],"type":"SCALAR"},{"bufferView":53,"componentType":5126,"count":5,"max":[0.3420201539993286,0,0,1],"min":[-0.3420201539993286,0,0,0.9396926164627075],"type":"VEC4"},{"bufferView":54,"componentType":5126,"count":5,"max":[2],"min":[0],"type":"SCALAR"},{"bufferView":55,"componentType":5126,"count":5,"max":[0.3420201539993286,0,0,1],"min":[-0.3420201539993286,0,0,0.9396926164627075],"type":"VEC4"},{"bufferView":56,"componentType":5126,"count":5,"max":[2],"min":[0],"type":"SCALAR"},{"bufferView":57,"componentType":5126,"count":5,"max":[0.3420201539993286,0,0,1],"min":[-0.4226182699203491,0,0,0.9063078165054321],"type":"VEC4"},{"bufferView":58,"componentType":5126,"count":5,"max":[2],"min":[0],"type":"SCALAR"},{"bufferView":59,"componentType":5126,"count":5,"max":[0.3420201539993286,0,0,1],"min":[-0.4226182699203491,0,0,0.9063078165054321],"type":"VEC4"},{"bufferView":60,"componentType":5126,"count":4,"max":[1.25],"min":[0.1666666716337204],"type":"SCALAR"},{"bufferView":61,"componentType":5126,"count":4,"max":[0,0.5,0,0.9914448857307434],"min":[0,-0.13052618503570557,0,0.8660253882408142],"type":"VEC4"},{"bufferView":62,"componentType":5126,"count":4,"max":[1.25],"min":[0.1666666716337204],"type":"SCALAR"},{"bufferView":63,"componentType":5126,"count":4,"max":[0,0.2798290252685547,0,0.9914448857307434],"min":[0,-0.4226182699203491,0,0.9063078165054321],"type":"VEC4"},{"bufferView":64,"componentType":5126,"count":4,"max":[1.25],"min":[0.1666666716337204],"type":"SCALAR"},{"bufferView":65,"componentType":5126,"count":4,"max":[0,0,0,1],"min":[0,0,-0.1736481785774231,0.9848077297210693],"type":"VEC4"},{"bufferView":66,"componentType":5126,"count":5,"max":[1.25],"min":[0],"type":"SCALAR"},{"bufferView":67,"componentType":5126,"count":5,"max":[0,0.2798290252685547,0,0.9762960076332092],"min":[0,-0.2164396196603775,0,0.9600498676300049],"type":"VEC4"},{"bufferView":68,"componentType":5126,"count":6,"max":[1.25],"min":[0],"type":"SCALAR"},{"bufferView":69,"componentType":5126,"count":6,"max":[0.9320078492164612,0,0.06889703124761581,0.7385863661766052],"min":[0.6051363945007324,-0.3263995051383972,-0.300021767616272,0.36243805289268494],"type":"VEC4"},{"bufferView":70,"componentType":5126,"count":4,"max":[1.25],"min":[0.1666666716337204],"type":"SCALAR"},{"bufferView":71,"componentType":5126,"count":4,"max":[-0.6455787420272827,-0.07099975645542145,-0.257839560508728,0.7153362035751343],"min":[-0.753410279750824,-0.14945094287395477,-0.4393664002418518,0.46582674980163574],"type":"VEC4"},{"bufferView":72,"componentType":5126,"count":4,"max":[1.25],"min":[0.1666666716337204],"type":"SCALAR"},{"bufferView":73,"componentType":5126,"count":4,"max":[0,0,0,1],"min":[0,-0.237685889005661,0,0.9713420867919922],"type":"VEC4"},{"bufferView":74,"componentType":5126,"count":4,"max":[1],"min":[0],"type":"SCALAR"},{"bufferView":75,"componentType":5126,"count":4,"max":[0.6915130615234375,0,0,1],"min":[0,0,0,0.7223639488220215],"type":"VEC4"},{"bufferView":76,"componentType":5126,"count":2,"max":[0.5],"min":[0],"type":"SCALAR"},{"bufferView":77,"componentType":5126,"count":2,"max":[0.4336080551147461,0.11130355298519135,0,0.8553749918937683],"min":[0,-0.6259234547615051,-0.26063233613967896,0.7798844575881958],"type":"VEC4"},{"bufferView":78,"componentType":5126,"count":2,"max":[0.5],"min":[0],"type":"SCALAR"},{"bufferView":79,"componentType":5126,"count":2,"max":[0.2536863684654236,-0.223585844039917,-0.36230167746543884,0.8950366377830505],"min":[0.05818120762705803,-0.3432183265686035,-0.3814888596534729,0.8286023736000061],"type":"VEC4"},{"bufferView":80,"componentType":5126,"count":2,"max":[0.5],"min":[0],"type":"SCALAR"},{"bufferView":81,"componentType":5126,"count":2,"max":[0,0.5187732577323914,0.3066897988319397,0.9252809882164001],"min":[-0.1861039251089096,0.123133085668087,0,0.8549118638038635],"type":"VEC4"},{"bufferView":82,"componentType":5126,"count":2,"max":[0.5],"min":[0],"type":"SCALAR"},{"bufferView":83,"componentType":5126,"count":2,"max":[0.1736481785774231,0,0,0.9848077297210693],"min":[-0.1736481785774231,0,0,0.9848077297210693],"type":"VEC4"},{"bufferView":84,"componentType":5126,"count":2,"max":[0.5],"min":[0],"type":"SCALAR"},{"bufferView":85,"componentType":5126,"count":2,"max":[0.4617486000061035,0,0,1],"min":[0,0,0,0.8870108127593994],"type":"VEC4"}],"materials":[{"pbrMetallicRoughness":{"metallicFactor":0,"roughnessFactor":1,"baseColorTexture":{"index":0}},"alphaMode":"MASK","alphaCutoff":0.05,"doubleSided":true}],"textures":[{"sampler":0,"source":0}],"samplers":[{"magFilter":9728,"minFilter":9728,"wrapS":33071,"wrapT":33071}],"images":[{"mimeType":"image/png","uri":"data:image/png;base64,"}],"meshes":[{"primitives":[{"mode":4,"attributes":{"POSITION":0,"NORMAL":1,"TEXCOORD_0":2},"indices":3,"material":0}]},{"primitives":[{"mode":4,"attributes":{"POSITION":4,"NORMAL":5,"TEXCOORD_0":6},"indices":7,"material":0}]},{"primitives":[{"mode":4,"attributes":{"POSITION":8,"NORMAL":9,"TEXCOORD_0":10},"indices":11,"material":0}]},{"primitives":[{"mode":4,"attributes":{"POSITION":12,"NORMAL":13,"TEXCOORD_0":14},"indices":15,"material":0}]},{"primitives":[{"mode":4,"attributes":{"POSITION":16,"NORMAL":17,"TEXCOORD_0":18},"indices":19,"material":0}]},{"primitives":[{"mode":4,"attributes":{"POSITION":20,"NORMAL":21,"TEXCOORD_0":22},"indices":23,"material":0}]},{"primitives":[{"mode":4,"attributes":{"POSITION":24,"NORMAL":25,"TEXCOORD_0":26},"indices":27,"material":0}]},{"primitives":[{"mode":4,"attributes":{"POSITION":28,"NORMAL":29,"TEXCOORD_0":30},"indices":31,"material":0}]},{"primitives":[{"mode":4,"attributes":{"POSITION":32,"NORMAL":33,"TEXCOORD_0":34},"indices":35,"material":0}]},{"primitives":[{"mode":4,"attributes":{"POSITION":36,"NORMAL":37,"TEXCOORD_0":38},"indices":39,"material":0}]},{"primitives":[{"mode":4,"attributes":{"POSITION":40,"NORMAL":41,"TEXCOORD_0":42},"indices":43,"material":0}]}],"animations":[{"name":"idle","samplers":[{"input":44,"output":45,"interpolation":"LINEAR"}],"channels":[{"sampler":0,"target":{"node":15,"path":"translation"}}]},{"name":"walk","samplers":[{"input":46,"output":47,"interpolation":"LINEAR"},{"input":48,"output":49,"interpolation":"LINEAR"},{"input":50,"output":51,"interpolation":"LINEAR"},{"input":52,"output":53,"interpolation":"LINEAR"},{"input":54,"output":55,"interpolation":"LINEAR"},{"input":56,"output":57,"interpolation":"LINEAR"},{"input":58,"output":59,"interpolation":"LINEAR"}],"channels":[{"sampler":0,"target":{"node":20,"path":"translation"}},{"sampler":1,"target":{"node":15,"path":"rotation"}},{"sampler":2,"target":{"node":15,"path":"translation"}},{"sampler":3,"target":{"node":3,"path":"rotation"}},{"sampler":4,"target":{"node":10,"path":"rotation"}},{"sampler":5,"target":{"node":17,"path":"rotation"}},{"sampler":6,"target":{"node":19,"path":"rotation"}}]},{"name":"attack","samplers":[{"input":60,"output":61,"interpolation":"LINEAR"},{"input":62,"output":63,"interpolation":"LINEAR"},{"input":64,"output":65,"interpolation":"LINEAR"},{"input":66,"output":67,"interpolation":"LINEAR"},{"input":68,"output":69,"interpolation":"LINEAR"},{"input":70,"output":71,"interpolation":"LINEAR"},{"input":72,"output":73,"interpolation":"LINEAR"}],"channels":[{"sampler":0,"target":{"node":15,"path":"rotation"}},{"sampler":1,"target":{"node":3,"path":"rotation"}},{"sampler":2,"target":{"node":2,"path":"rotation"}},{"sampler":3,"target":{"node":10,"path":"rotation"}},{"sampler":4,"target":{"node":9,"path":"rotation"}},{"sampler":5,"target":{"node":8,"path":"rotation"}},{"sampler":6,"target":{"node":14,"path":"rotation"}}]},{"name":"death","samplers":[{"input":74,"output":75,"interpolation":"LINEAR"},{"input":76,"output":77,"interpolation":"LINEAR"},{"input":78,"output":79,"interpolation":"LINEAR"},{"input":80,"output":81,"interpolation":"LINEAR"},{"input":82,"output":83,"interpolation":"LINEAR"},{"input":84,"output":85,"interpolation":"LINEAR"}],"channels":[{"sampler":0,"target":{"node":20,"path":"rotation"}},{"sampler":1,"target":{"node":3,"path":"rotation"}},{"sampler":2,"target":{"node":2,"path":"rotation"}},{"sampler":3,"target":{"node":10,"path":"rotation"}},{"sampler":4,"target":{"node":14,"path":"rotation"}},{"sampler":5,"target":{"node":17,"path":"rotation"}}]}]}