{"asset":{"version":"2.0","generator":"Blockbench 4.9.4 glTF exporter"},"scenes":[{"nodes":[17],"name":"blockbench_export"}],"scene":0,"nodes":[{"rotation":[0,0.3826834323650898,0,0.9238795325112867],"name":"pyramid","mesh":0},{"translation":[0,0.7729166666666667,0],"name":"head","children":[0]},{"rotation":[-0.6532814824381882,0.2705980500730985,-0.27059805007309845,0.6532814824381883],"name":"pyramid","mesh":1},{"rotation":[0,0.7071067811865475,0,0.7071067811865476],"translation":[0.004687500000000067,-1.1102230246251565e-16,6.938893903907228e-18],"name":"pyramid","mesh":2},{"rotation":[0,-0.7071067811865475,0,0.7071067811865476],"name":"pyramid","mesh":3},{"translation":[-0.14374999999999993,0,0],"name":"lhand2","children":[4]},{"translation":[-0.25468750000000007,0.06250000000000011,-1.0408340855860843e-17],"name":"lshoulder","children":[3,5]},{"rotation":[0,-0.7071067811865475,0,0.7071067811865476],"translation":[-0.004687499999999956,-2.220446049250313e-16,6.938893903907228e-18],"name":"pyramid","mesh":4},{"rotation":[0,0.7071067811865475,0,0.7071067811865476],"name":"pyramid","mesh":5},{"translation":[0.14375000000000004,0,0],"name":"rhand","children":[8]},{"translation":[0.25468749999999996,0.06250000000000022,-1.0408340855860843e-17],"name":"rshoulder","children":[7,9]},{"translation":[0,0.5,0],"name":"torso","children":[2,6,10]},{"rotation":[0,-1,0,6.123233995736766e-17],"name":"pyramid","mesh":6},{"translation":[-0.15624999999999997,0.3125,-0.012500000000000006],"name":"lleg","children":[12]},{"rotation":[0,-1,0,6.123233995736766e-17],"name":"pyramid","mesh":7},{"translation":[0.15624999999999997,0.3125,-0.012500000000000008],"name":"rleg","children":[14]},{"name":"guy","children":[1,11,13,15]},{"children":[16]}],"bufferViews":[{"buffer":0,"byteOffset":0,"byteLength":288,"target":34962,"byteStride":12},{"buffer":0,"byteOffset":288,"byteLength":288,"target":34962,"byteStride":12},{"buffer":0,"byteOffset":576,"byteLength":192,"target":34962,"byteStride":8},{"buffer":0,"byteOffset":768,"byteLength":48,"target":34963},{"buffer":0,"byteOffset":816,"byteLength":288,"target":34962,"byteStride":12},{"buffer":0,"byteOffset":1104,"byteLength":288,"target":34962,"byteStride":12},{"buffer":0,"byteOffset":1392,"byteLength":192,"target":34962,"byteStride":8},{"buffer":0,"byteOffset":1584,"byteLength":48,"target":34963},{"buffer":0,"byteOffset":1632,"byteLength":144,"target":34962,"byteStride":12},{"buffer":0,"byteOffset":1776,"byteLength":144,"target":34962,"byteStride":12},{"buffer":0,"byteOffset":1920,"byteLength":96,"target":34962,"byteStride":8},{"buffer":0,"byteOffset":2016,"byteLength":24,"target":34963},{"buffer":0,"byteOffset":2040,"byteLength":144,"target":34962,"byteStride":12},{"buffer":0,"byteOffset":2184,"byteLength":144,"target":34962,"byteStride":12},{"buffer":0,"byteOffset":2328,"byteLength":96,"target":34962,"byteStride":8},{"buffer":0,"byteOffset":2424,"byteLength":24,"target":34963},{"buffer":0,"byteOffset":2448,"byteLength":144,"target":34962,"byteStride":12},{"buffer":0,"byteOffset":2592,"byteLength":144,"target":34962,"byteStride":12},{"buffer":0,"byteOffset":2736,"byteLength":96,"target":34962,"byteStride":8},{"buffer":0,"byteOffset":2832,"byteLength":24,"target":34963},{"buffer":0,"byteOffset":2856,"byteLength":144,"target":34962,"byteStride":12},{"buffer":0,"byteOffset":3000,"byteLength":144,"target":34962,"byteStride":12},{"buffer":0,"byteOffset":3144,"byteLength":96,"target":34962,"byteStride":8},{"buffer":0,"byteOffset":3240,"byteLength":24,"target":34963},{"buffer":0,"byteOffset":3264,"byteLength":144,"target":34962,"byteStride":12},{"buffer":0,"byteOffset":3408,"byteLength":144,"target":34962,"byteStride":12},{"buffer":0,"byteOffset":3552,"byteLength":96,"target":34962,"byteStride":8},{"buffer":0,"byteOffset":3648,"byteLength":24,"target":34963},{"buffer":0,"byteOffset":3672,"byteLength":144,"target":34962,"byteStride":12},{"buffer":0,"byteOffset":3816,"byteLength":144,"target":34962,"byteStride":12},{"buffer":0,"byteOffset":3960,"byteLength":96,"target":34962,"byteStride":8},{"buffer":0,"byteOffset":4056,"byteLength":24,"target":34963},{"buffer":0,"byteOffset":4080,"byteLength":12},{"buffer":0,"byteOffset":4092,"byteLength":36},{"buffer":0,"byteOffset":4128,"byteLength":12},{"buffer":0,"byteOffset":4140,"byteLength":36},{"buffer":0,"byteOffset":4176,"byteLength":12},{"buffer":0,"byteOffset":4188,"byteLength":48},{"buffer":0,"byteOffset":4236,"byteLength":12},{"buffer":0,"byteOffset":4248,"byteLength":48},{"buffer":0,"byteOffset":4296,"byteLength":20},{"buffer":0,"byteOffset":4316,"byteLength":80},{"buffer":0,"byteOffset":4396,"byteLength":20},{"buffer":0,"byteOffset":4416,"byteLength":80},{"buffer":0,"byteOffset":4496,"byteLength":20},{"buffer":0,"byteOffset":4516,"byteLength":80},{"buffer":0,"byteOffset":4596,"byteLength":20},{"buffer":0,"byteOffset":4616,"byteLength":80},{"buffer":0,"byteOffset":4696,"byteLength":20},{"buffer":0,"byteOffset":4716,"byteLength":80},{"buffer":0,"byteOffset":4796,"byteLength":20},{"buffer":0,"byteOffset":4816,"byteLength":60},{"buffer":0,"byteOffset":4876,"byteLength":20},{"buffer":0,"byteOffset":4896,"byteLength":80},{"buffer":0,"byteOffset":4976,"byteLength":20},{"buffer":0,"byteOffset":4996,"byteLength":60},{"buffer":0,"byteOffset":5056,"byteLength":16},{"buffer":0,"byteOffset":5072,"byteLength":64},{"buffer":0,"byteOffset":5136,"byteLength":16},{"buffer":0,"byteOffset":5152,"byteLength":64},{"buffer":0,"byteOffset":5216,"byteLength":8},{"buffer":0,"byteOffset":5224,"byteLength":32},{"buffer":0,"byteOffset":5256,"byteLength":16},{"buffer":0,"byteOffset":5272,"byteLength":64},{"buffer":0,"byteOffset":5336,"byteLength":12},{"buffer":0,"byteOffset":5348,"byteLength":48},{"buffer":0,"byteOffset":5396,"byteLength":8},{"buffer":0,"byteOffset":5404,"byteLength":32}],"buffers":[{"byteLength":5436,"uri":"data:application/octet-stream;base64,"}],"accessors":[{"bufferView":0,"componentType":5126,"count":24,"max":[0.1875,0.5520833134651184,0.1875],"min":[-0.1875,-0.010416666977107525,-0.1875],"type":"VEC3"},{"bufferView":1,"componentType":5126,"count":24,"max":[0.8311610221862793,0.5484663844108582,0.9341154098510742],"min":[-0.9341154098510742,-0.7071067690849304,-0.8311610221862793],"type":"VEC3"},{"bufferView":2,"componentType":5126,"count":24,"max":[0.546875,0.53125],"min":[0,0],"type":"VEC2"},{"bufferView":3,"componentType":5123,"count":24,"max":[23],"min":[0],"type":"SCALAR"},{"bufferView":4,"componentType":5126,"count":24,"max":[0.1875,0.25,0.23169417679309845],"min":[-0.23169417679309845,-0.3125,-0.1875],"type":"VEC3"},{"bufferView":5,"componentType":5126,"count":24,"max":[0.8272484540939331,0.6444060802459717,0.9552463293075562],"min":[-0.9552463293075562,-0.6469053030014038,-0.8272484540939331],"type":"VEC3"},{"bufferView":6,"componentType":5126,"count":24,"max":[0.4332318603992462,0.453125],"min":[0.0057190218940377235,0],"type":"VEC2"},{"bufferView":7,"componentType":5123,"count":24,"max":[23],"min":[0],"type":"SCALAR"},{"bufferView":8,"componentType":5126,"count":12,"max":[0.125,0.25,0],"min":[-0.125,0,-0.25],"type":"VEC3"},{"bufferView":9,"componentType":5126,"count":12,"max":[0.8232125639915466,1,0.4116062819957733],"min":[-0.8232125639915466,0.049937617033720016,-0.9987523555755615],"type":"VEC3"},{"bufferView":10,"componentType":5126,"count":12,"max":[0.6217008233070374,0.6011970043182373],"min":[0.20641717314720154,0.21875],"type":"VEC2"},{"bufferView":11,"componentType":5123,"count":12,"max":[11],"min":[0],"type":"SCALAR"},{"bufferView":12,"componentType":5126,"count":12,"max":[0.08124999701976776,0.012500000186264515,0.10781250149011612],"min":[-0.08124999701976776,-0.36250001192092896,-0.0546875],"type":"VEC3"},{"bufferView":13,"componentType":5126,"count":12,"max":[0.8873322606086731,1,0.44366613030433655],"min":[-0.8873322606086731,0.12570540606975555,-0.9889363646507263],"type":"VEC3"},{"bufferView":14,"componentType":5126,"count":12,"max":[0.625,0.6594501733779907],"min":[0.09375,0],"type":"VEC2"},{"bufferView":15,"componentType":5123,"count":12,"max":[11],"min":[0],"type":"SCALAR"},{"bufferView":16,"componentType":5126,"count":12,"max":[0.125,0.25,0],"min":[-0.125,0,-0.25],"type":"VEC3"},{"bufferView":17,"componentType":5126,"count":12,"max":[0.8232125639915466,1,0.4116062819957733],"min":[-0.8232125639915466,0.049937617033720016,-0.9987523555755615],"type":"VEC3"},{"bufferView":18,"componentType":5126,"count":12,"max":[0.6217008233070374,0.6011970043182373],"min":[0.39391717314720154,0.3125],"type":"VEC2"},{"bufferView":19,"componentType":5123,"count":12,"max":[11],"min":[0],"type":"SCALAR"},{"bufferView":20,"componentType":5126,"count":12,"max":[0.08124999701976776,0.012500000186264515,0.10781250149011612],"min":[-0.08124999701976776,-0.36250001192092896,-0.0546875],"type":"VEC3"},{"bufferView":21,"componentType":5126,"count":12,"max":[0.8873322606086731,1,0.44366613030433655],"min":[-0.8873322606086731,0.12570540606975555,-0.9889363646507263],"type":"VEC3"},{"bufferView":22,"componentType":5126,"count":12,"max":[0.640625,0.5974406599998474],"min":[0.328125,0.0625],"type":"VEC2"},{"bufferView":23,"componentType":5123,"count":12,"max":[11],"min":[0],"type":"SCALAR"},{"bufferView":24,"componentType":5126,"count":12,"max":[0.125,0,0.15000000596046448],"min":[-0.125,-0.3125,-0.10000000149011612],"type":"VEC3"},{"bufferView":25,"componentType":5126,"count":12,"max":[0.8745055198669434,1,0.4372527599334717],"min":[-0.8745055198669434,0.20988132059574127,-0.952424168586731],"type":"VEC3"},{"bufferView":26,"componentType":5126,"count":12,"max":[0.46875,0.6167521476745605],"min":[0.0032991503830999136,0.21875],"type":"VEC2"},{"bufferView":27,"componentType":5123,"count":12,"max":[11],"min":[0],"type":"SCALAR"},{"bufferView":28,"componentType":5126,"count":12,"max":[0.125,0,0.15000000596046448],"min":[-0.125,-0.3125,-0.10000000149011612],"type":"VEC3"},{"bufferView":29,"componentType":5126,"count":12,"max":[0.8745055198669434,1,0.4372527599334717],"min":[-0.8745055198669434,0.20988132059574127,-0.952424168586731],"type":"VEC3"},{"bufferView":30,"componentType":5126,"count":12,"max":[0.6217008233070374,0.5238083600997925],"min":[0.2671297788619995,0.046875],"type":"VEC2"},{"bufferView":31,"componentType":5123,"count":12,"max":[11],"min":[0],"type":"SCALAR"},{"bufferView":32,"componentType":5126,"count":3,"max":[1],"min":[0],"type":"SCALAR"},{"bufferView":33,"componentType":5126,"count":3,"max":[0,0.7729166746139526,0],"min":[0,0.7104166746139526,0],"type":"VEC3"},{"bufferView":34,"componentType":5126,"count":3,"max":[1],"min":[0],"type":"SCALAR"},{"bufferView":35,"componentType":5126,"count":3,"max":[0,0.5,0],"min":[0,0.46875,0],"type":"VEC3"},{"bufferView":36,"componentType":5126,"count":3,"max":[1],"min":[0],"type":"SCALAR"},{"bufferView":37,"componentType":5126,"count":3,"max":[0,0,0,1],"min":[0,0,-0.08715574443340302,0.9961947202682495],"type":"VEC4"},{"bufferView":38,"componentType":5126,"count":3,"max":[1],"min":[0],"type":"SCALAR"},{"bufferView":39,"componentType":5126,"count":3,"max":[0,0,0.08715574443340302,1],"min":[0,0,0,0.9961947202682495],"type":"VEC4"},{"bufferView":40,"componentType":5126,"count":5,"max":[2],"min":[0],"type":"SCALAR"},{"bufferView":41,"componentType":5126,"count":5,"max":[0.1736481785774231,0,0,1],"min":[-0.1736481785774231,0,0,0.9848077297210693],"type":"VEC4"},{"bufferView":42,"componentType":5126,"count":5,"max":[2],"min":[0],"type":"SCALAR"},{"bufferView":43,"componentType":5126,"count":5,"max":[0.1736481785774231,0,0,1],"min":[-0.1736481785774231,0,0,0.9848077297210693],"type":"VEC4"},{"bufferView":44,"componentType":5126,"count":5,"max":[2],"min":[0],"type":"SCALAR"},{"bufferView":45,"componentType":5126,"count":5,"max":[0.4226182699203491,0,0,1],"min":[-0.4617486000061035,0,0,0.8870108127593994],"type":"VEC4"},{"bufferView":46,"componentType":5126,"count":5,"max":[2],"min":[0],"type":"SCALAR"},{"bufferView":47,"componentType":5126,"count":5,"max":[0.40274667739868164,0,0,1],"min":[-0.44228869676589966,0,0,0.8968727588653564],"type":"VEC4"},{"bufferView":48,"componentType":5126,"count":5,"max":[2],"min":[0],"type":"SCALAR"},{"bufferView":49,"componentType":5126,"count":5,"max":[0,0.15212339162826538,0,1],"min":[0,-0.13052618503570557,0,0.9883615374565125],"type":"VEC4"},{"bufferView":50,"componentType":5126,"count":5,"max":[2],"min":[0],"type":"SCALAR"},{"bufferView":51,"componentType":5126,"count":5,"max":[0,0.5,0],"min":[0,0.46875,0],"type":"VEC3"},{"bufferView":52,"componentType":5126,"count":5,"max":[2],"min":[0],"type":"SCALAR"},{"bufferView":53,"componentType":5126,"count":5,"max":[0,0.08715574443340302,0,1],"min":[0,-0.08715574443340302,0,0.9961947202682495],"type":"VEC4"},{"bufferView":54,"componentType":5126,"count":5,"max":[2],"min":[0],"type":"SCALAR"},{"bufferView":55,"componentType":5126,"count":5,"max":[0,0.7729166746139526,0],"min":[0,0.7416666746139526,0],"type":"VEC3"},{"bufferView":56,"componentType":5126,"count":4,"max":[1.25],"min":[0],"type":"SCALAR"},{"bufferView":57,"componentType":5126,"count":4,"max":[0,0.13052618503570557,0,1],"min":[0,-0.13052618503570557,0,0.9914448857307434],"type":"VEC4"},{"bufferView":58,"componentType":5126,"count":4,"max":[1.25],"min":[0],"type":"SCALAR"},{"bufferView":59,"componentType":5126,"count":4,"max":[0,0.591309666633606,0,1],"min":[0,-0.237685889005661,0,0.8064445853233337],"type":"VEC4"},{"bufferView":60,"componentType":5126,"count":2,"max":[0.5],"min":[0],"type":"SCALAR"},{"bufferView":61,"componentType":5126,"count":2,"max":[0,0,0,1],"min":[-0.15212339162826538,0,0,0.9883615374565125],"type":"VEC4"},{"bufferView":62,"componentType":5126,"count":4,"max":[1.25],"min":[0],"type":"SCALAR"},{"bufferView":63,"componentType":5126,"count":4,"max":[0.6741437315940857,0,0.2969360053539276,1],"min":[0,-0.27209171652793884,0,0.6748384237289429],"type":"VEC4"},{"bufferView":64,"componentType":5126,"count":3,"max":[1.25],"min":[0],"type":"SCALAR"},{"bufferView":65,"componentType":5126,"count":3,"max":[0,0,0.2164396196603775,1],"min":[0,0,0,0.9762960076332092],"type":"VEC4"},{"bufferView":66,"componentType":5126,"count":2,"max":[1],"min":[0],"type":"SCALAR"},{"bufferView":67,"componentType":5126,"count":2,"max":[0.7071067690849304,0,0,1],"min":[0,0,0,0.7071067690849304],"type":"VEC4"}],"materials":[{"pbrMetallicRoughness":{"metallicFactor":0,"roughnessFactor":1,"baseColorTexture":{"index":0}},"alphaMode":"MASK","alphaCutoff":0.05,"doubleSided":true}],"textures":[{"sampler":0,"source":0}],"samplers":[{"magFilter":9728,"minFilter":9728,"wrapS":33071,"wrapT":33071}],"images":[{"mimeType":"image/png","uri":"data:image/png;base64,"}],"meshes":[{"primitives":[{"mode":4,"attributes":{"POSITION":0,"NORMAL":1,"TEXCOORD_0":2},"indices":3,"material":0}]},{"primitives":[{"mode":4,"attributes":{"POSITION":4,"NORMAL":5,"TEXCOORD_0":6},"indices":7,"material":0}]},{"primitives":[{"mode":4,"attributes":{"POSITION":8,"NORMAL":9,"TEXCOORD_0":10},"indices":11,"material":0}]},{"primitives":[{"mode":4,"attributes":{"POSITION":12,"NORMAL":13,"TEXCOORD_0":14},"indices":15,"material":0}]},{"primitives":[{"mode":4,"attributes":{"POSITION":16,"NORMAL":17,"TEXCOORD_0":18},"indices":19,"material":0}]},{"primitives":[{"mode":4,"attributes":{"POSITION":20,"NORMAL":21,"TEXCOORD_0":22},"indices":23,"material":0}]},{"primitives":[{"mode":4,"attributes":{"POSITION":24,"NORMAL":25,"TEXCOORD_0":26},"indices":27,"material":0}]},{"primitives":[{"mode":4,"attributes":{"POSITION":28,"NORMAL":29,"TEXCOORD_0":30},"indices":31,"material":0}]}],"animations":[{"name":"idle","samplers":[{"input":32,"output":33,"interpolation":"LINEAR"},{"input":34,"output":35,"interpolation":"LINEAR"},{"input":36,"output":37,"interpolation":"LINEAR"},{"input":38,"output":39,"interpolation":"LINEAR"}],"channels":[{"sampler":0,"target":{"node":1,"path":"translation"}},{"sampler":1,"target":{"node":11,"path":"translation"}},{"sampler":2,"target":{"node":6,"path":"rotation"}},{"sampler":3,"target":{"node":10,"path":"rotation"}}]},{"name":"walk","samplers":[{"input":40,"output":41,"interpolation":"LINEAR"},{"input":42,"output":43,"interpolation":"LINEAR"},{"input":44,"output":45,"interpolation":"LINEAR"},{"input":46,"output":47,"interpolation":"LINEAR"},{"input":48,"output":49,"interpolation":"LINEAR"},{"input":50,"output":51,"interpolation":"LINEAR"},{"input":52,"output":53,"interpolation":"LINEAR"},{"input":54,"output":55,"interpolation":"LINEAR"}],"channels":[{"sampler":0,"target":{"node":6,"path":"rotation"}},{"sampler":1,"target":{"node":10,"path":"rotation"}},{"sampler":2,"target":{"node":15,"path":"rotation"}},{"sampler":3,"target":{"node":13,"path":"rotation"}},{"sampler":4,"target":{"node":11,"path":"rotation"}},{"sampler":5,"target":{"node":11,"path":"translation"}},{"sampler":6,"target":{"node":1,"path":"rotation"}},{"sampler":7,"target":{"node":1,"path":"translation"}}]},{"name":"attack","samplers":[{"input":56,"output":57,"interpolation":"LINEAR"},{"input":58,"output":59,"interpolation":"LINEAR"},{"input":60,"output":61,"interpolation":"LINEAR"},{"input":62,"output":63,"interpolation":"LINEAR"},{"input":64,"output":65,"interpolation":"LINEAR"}],"channels":[{"sampler":0,"target":{"node":1,"path":"rotation"}},{"sampler":1,"target":{"node":11,"path":"rotation"}},{"sampler":2,"target":{"node":6,"path":"rotation"}},{"sampler":3,"target":{"node":10,"path":"rotation"}},{"sampler":4,"target":{"node":9,"path":"rotation"}}]},{"name":"death","samplers":[{"input":66,"output":67,"interpolation":"LINEAR"}],"channels":[{"sampler":0,"target":{"node":16,"path":"rotation"}}]}]}