{"asset":{"version":"2.0","generator":"Blockbench 4.9.4 glTF exporter"},"scenes":[{"nodes":[13],"name":"blockbench_export"}],"scene":0,"nodes":[{"name":"cuboid","mesh":0},{"name":"cuboid","mesh":1},{"name":"pyramid","mesh":2},{"name":"tower","children":[1,2]},{"name":"cuboid","mesh":3},{"name":"pyramid","mesh":4},{"translation":[0.75,0,0],"name":"tower2","children":[4,5]},{"name":"cuboid","mesh":5},{"name":"pyramid","mesh":6},{"translation":[0.75,0,0.75],"name":"tower3","children":[7,8]},{"name":"cuboid","mesh":7},{"name":"pyramid","mesh":8},{"translation":[0,0,0.75],"name":"tower4","children":[10,11]},{"children":[0,3,6,9,12]}],"bufferViews":[{"buffer":0,"byteOffset":0,"byteLength":288,"target":34962,"byteStride":12},{"buffer":0,"byteOffset":288,"byteLength":288,"target":34962,"byteStride":12},{"buffer":0,"byteOffset":576,"byteLength":192,"target":34962,"byteStride":8},{"buffer":0,"byteOffset":768,"byteLength":72,"target":34963},{"buffer":0,"byteOffset":840,"byteLength":288,"target":34962,"byteStride":12},{"buffer":0,"byteOffset":1128,"byteLength":288,"target":34962,"byteStride":12},{"buffer":0,"byteOffset":1416,"byteLength":192,"target":34962,"byteStride":8},{"buffer":0,"byteOffset":1608,"byteLength":72,"target":34963},{"buffer":0,"byteOffset":1680,"byteLength":192,"target":34962,"byteStride":12},{"buffer":0,"byteOffset":1872,"byteLength":192,"target":34962,"byteStride":12},{"buffer":0,"byteOffset":2064,"byteLength":128,"target":34962,"byteStride":8},{"buffer":0,"byteOffset":2192,"byteLength":36,"target":34963},{"buffer":0,"byteOffset":2228,"byteLength":288,"target":34962,"byteStride":12},{"buffer":0,"byteOffset":2516,"byteLength":288,"target":34962,"byteStride":12},{"buffer":0,"byteOffset":2804,"byteLength":192,"target":34962,"byteStride":8},{"buffer":0,"byteOffset":2996,"byteLength":72,"target":34963},{"buffer":0,"byteOffset":3068,"byteLength":192,"target":34962,"byteStride":12},{"buffer":0,"byteOffset":3260,"byteLength":192,"target":34962,"byteStride":12},{"buffer":0,"byteOffset":3452,"byteLength":128,"target":34962,"byteStride":8},{"buffer":0,"byteOffset":3580,"byteLength":36,"target":34963},{"buffer":0,"byteOffset":3616,"byteLength":288,"target":34962,"byteStride":12},{"buffer":0,"byteOffset":3904,"byteLength":288,"target":34962,"byteStride":12},{"buffer":0,"byteOffset":4192,"byteLength":192,"target":34962,"byteStride":8},{"buffer":0,"byteOffset":4384,"byteLength":72,"target":34963},{"buffer":0,"byteOffset":4456,"byteLength":192,"target":34962,"byteStride":12},{"buffer":0,"byteOffset":4648,"byteLength":192,"target":34962,"byteStride":12},{"buffer":0,"byteOffset":4840,"byteLength":128,"target":34962,"byteStride":8},{"buffer":0,"byteOffset":4968,"byteLength":36,"target":34963},{"buffer":0,"byteOffset":5004,"byteLength":288,"target":34962,"byteStride":12},{"buffer":0,"byteOffset":5292,"byteLength":288,"target":34962,"byteStride":12},{"buffer":0,"byteOffset":5580,"byteLength":192,"target":34962,"byteStride":8},{"buffer":0,"byteOffset":5772,"byteLength":72,"target":34963},{"buffer":0,"byteOffset":5844,"byteLength":192,"target":34962,"byteStride":12},{"buffer":0,"byteOffset":6036,"byteLength":192,"target":34962,"byteStride":12},{"buffer":0,"byteOffset":6228,"byteLength":128,"target":34962,"byteStride":8},{"buffer":0,"byteOffset":6356,"byteLength":36,"target":34963}],"buffers":[{"byteLength":6392,"uri":"data:application/octet-stream;base64,"}],"accessors":[{"bufferView":0,"componentType":5126,"count":24,"max":[0.5,0.875,0.5],"min":[-0.5,0,-0.5],"type":"VEC3"},{"bufferView":1,"componentType":5126,"count":24,"max":[1,1,1],"min":[-1,-1,-1],"type":"VEC3"},{"bufferView":2,"componentType":5126,"count":24,"max":[0.515625,0.75],"min":[0,0],"type":"VEC2"},{"bufferView":3,"componentType":5123,"count":36,"max":[23],"min":[0],"type":"SCALAR"},{"bufferView":4,"componentType":5126,"count":24,"max":[-0.25,1.25,-0.25],"min":[-0.5,0.875,-0.5],"type":"VEC3"},{"bufferView":5,"componentType":5126,"count":24,"max":[1,1,1],"min":[-1,-1,-1],"type":"VEC3"},{"bufferView":6,"componentType":5126,"count":24,"max":[0.8125,0.890625],"min":[0,0.5],"type":"VEC2"},{"bufferView":7,"componentType":5123,"count":36,"max":[23],"min":[0],"type":"SCALAR"},{"bufferView":8,"componentType":5126,"count":16,"max":[-0.21875,1.53125,-0.21875],"min":[-0.53125,1.21875,-0.53125],"type":"VEC3"},{"bufferView":9,"componentType":5126,"count":16,"max":[0.8944271802902222,0.4472135901451111,0.8944271802902222],"min":[-0.8944271802902222,-1,-0.8944271802902222],"type":"VEC3"},{"bufferView":10,"componentType":5126,"count":16,"max":[0.796875,0.7675572037696838],"min":[0.5346534252166748,0],"type":"VEC2"},{"bufferView":11,"componentType":5123,"count":18,"max":[15],"min":[0],"type":"SCALAR"},{"bufferView":12,"componentType":5126,"count":24,"max":[-0.25,1.25,-0.25],"min":[-0.5,0.875,-0.5],"type":"VEC3"},{"bufferView":13,"componentType":5126,"count":24,"max":[1,1,1],"min":[-1,-1,-1],"type":"VEC3"},{"bufferView":14,"componentType":5126,"count":24,"max":[0.8125,0.890625],"min":[0,0.5],"type":"VEC2"},{"bufferView":15,"componentType":5123,"count":36,"max":[23],"min":[0],"type":"SCALAR"},{"bufferView":16,"componentType":5126,"count":16,"max":[-0.21875,1.53125,-0.21875],"min":[-0.53125,1.21875,-0.53125],"type":"VEC3"},{"bufferView":17,"componentType":5126,"count":16,"max":[0.8944271802902222,0.4472135901451111,0.8944271802902222],"min":[-0.8944271802902222,-1,-0.8944271802902222],"type":"VEC3"},{"bufferView":18,"componentType":5126,"count":16,"max":[0.796875,0.7675572037696838],"min":[0.5346534252166748,0],"type":"VEC2"},{"bufferView":19,"componentType":5123,"count":18,"max":[15],"min":[0],"type":"SCALAR"},{"bufferView":20,"componentType":5126,"count":24,"max":[-0.25,1.25,-0.25],"min":[-0.5,0.875,-0.5],"type":"VEC3"},{"bufferView":21,"componentType":5126,"count":24,"max":[1,1,1],"min":[-1,-1,-1],"type":"VEC3"},{"bufferView":22,"componentType":5126,"count":24,"max":[0.8125,0.890625],"min":[0,0.5],"type":"VEC2"},{"bufferView":23,"componentType":5123,"count":36,"max":[23],"min":[0],"type":"SCALAR"},{"bufferView":24,"componentType":5126,"count":16,"max":[-0.21875,1.53125,-0.21875],"min":[-0.53125,1.21875,-0.53125],"type":"VEC3"},{"bufferView":25,"componentType":5126,"count":16,"max":[0.8944271802902222,0.4472135901451111,0.8944271802902222],"min":[-0.8944271802902222,-1,-0.8944271802902222],"type":"VEC3"},{"bufferView":26,"componentType":5126,"count":16,"max":[0.796875,0.7675572037696838],"min":[0.5346534252166748,0],"type":"VEC2"},{"bufferView":27,"componentType":5123,"count":18,"max":[15],"min":[0],"type":"SCALAR"},{"bufferView":28,"componentType":5126,"count":24,"max":[-0.25,1.25,-0.25],"min":[-0.5,0.875,-0.5],"type":"VEC3"},{"bufferView":29,"componentType":5126,"count":24,"max":[1,1,1],"min":[-1,-1,-1],"type":"VEC3"},{"bufferView":30,"componentType":5126,"count":24,"max":[0.8125,0.890625],"min":[0,0.5],"type":"VEC2"},{"bufferView":31,"componentType":5123,"count":36,"max":[23],"min":[0],"type":"SCALAR"},{"bufferView":32,"componentType":5126,"count":16,"max":[-0.21875,1.53125,-0.21875],"min":[-0.53125,1.21875,-0.53125],"type":"VEC3"},{"bufferView":33,"componentType":5126,"count":16,"max":[0.8944271802902222,0.4472135901451111,0.8944271802902222],"min":[-0.8944271802902222,-1,-0.8944271802902222],"type":"VEC3"},{"bufferView":34,"componentType":5126,"count":16,"max":[0.796875,0.7675572037696838],"min":[0.5346534252166748,0],"type":"VEC2"},{"bufferView":35,"componentType":5123,"count":18,"max":[15],"min":[0],"type":"SCALAR"}],"materials":[{"pbrMetallicRoughness":{"metallicFactor":0,"roughnessFactor":1,"baseColorTexture":{"index":0}},"alphaMode":"MASK","alphaCutoff":0.05,"doubleSided":true}],"textures":[{"sampler":0,"source":0}],"samplers":[{"magFilter":9728,"minFilter":9728,"wrapS":33071,"wrapT":33071}],"images":[{"mimeType":"image/png","uri":"data:image/png;base64,"}],"meshes":[{"primitives":[{"mode":4,"attributes":{"POSITION":0,"NORMAL":1,"TEXCOORD_0":2},"indices":3,"material":0}]},{"primitives":[{"mode":4,"attributes":{"POSITION":4,"NORMAL":5,"TEXCOORD_0":6},"indices":7,"material":0}]},{"primitives":[{"mode":4,"attributes":{"POSITION":8,"NORMAL":9,"TEXCOORD_0":10},"indices":11,"material":0}]},{"primitives":[{"mode":4,"attributes":{"POSITION":12,"NORMAL":13,"TEXCOORD_0":14},"indices":15,"material":0}]},{"primitives":[{"mode":4,"attributes":{"POSITION":16,"NORMAL":17,"TEXCOORD_0":18},"indices":19,"material":0}]},{"primitives":[{"mode":4,"attributes":{"POSITION":20,"NORMAL":21,"TEXCOORD_0":22},"indices":23,"material":0}]},{"primitives":[{"mode":4,"attributes":{"POSITION":24,"NORMAL":25,"TEXCOORD_0":26},"indices":27,"material":0}]},{"primitives":[{"mode":4,"attributes":{"POSITION":28,"NORMAL":29,"TEXCOORD_0":30},"indices":31,"material":0}]},{"primitives":[{"mode":4,"attributes":{"POSITION":32,"NORMAL":33,"TEXCOORD_0":34},"indices":35,"material":0}]}]}