{"asset":{"version":"2.0","generator":"Blockbench 4.9.4 glTF exporter"},"scenes":[{"nodes":[4],"name":"blockbench_export"}],"scene":0,"nodes":[{"translation":[0,0.25,0],"name":"cuboid","mesh":0},{"name":"pyramid","mesh":1},{"name":"pyramid","mesh":2},{"name":"pyramid","mesh":3},{"children":[0,1,2,3]}],"bufferViews":[{"buffer":0,"byteOffset":0,"byteLength":288,"target":34962,"byteStride":12},{"buffer":0,"byteOffset":288,"byteLength":288,"target":34962,"byteStride":12},{"buffer":0,"byteOffset":576,"byteLength":192,"target":34962,"byteStride":8},{"buffer":0,"byteOffset":768,"byteLength":72,"target":34963},{"buffer":0,"byteOffset":840,"byteLength":192,"target":34962,"byteStride":12},{"buffer":0,"byteOffset":1032,"byteLength":192,"target":34962,"byteStride":12},{"buffer":0,"byteOffset":1224,"byteLength":128,"target":34962,"byteStride":8},{"buffer":0,"byteOffset":1352,"byteLength":36,"target":34963},{"buffer":0,"byteOffset":1388,"byteLength":192,"target":34962,"byteStride":12},{"buffer":0,"byteOffset":1580,"byteLength":192,"target":34962,"byteStride":12},{"buffer":0,"byteOffset":1772,"byteLength":128,"target":34962,"byteStride":8},{"buffer":0,"byteOffset":1900,"byteLength":36,"target":34963},{"buffer":0,"byteOffset":1936,"byteLength":192,"target":34962,"byteStride":12},{"buffer":0,"byteOffset":2128,"byteLength":192,"target":34962,"byteStride":12},{"buffer":0,"byteOffset":2320,"byteLength":128,"target":34962,"byteStride":8},{"buffer":0,"byteOffset":2448,"byteLength":36,"target":34963}],"buffers":[{"byteLength":2484,"uri":"data:application/octet-stream;base64,"}],"accessors":[{"bufferView":0,"componentType":5126,"count":24,"max":[0.0625,-0.0625,0.0625],"min":[-0.0625,-0.25,-0.0625],"type":"VEC3"},{"bufferView":1,"componentType":5126,"count":24,"max":[1,1,1],"min":[-1,-1,-1],"type":"VEC3"},{"bufferView":2,"componentType":5126,"count":24,"max":[0.84375,0.9375],"min":[0.28125,0],"type":"VEC2"},{"bufferView":3,"componentType":5123,"count":36,"max":[23],"min":[0],"type":"SCALAR"},{"bufferView":4,"componentType":5126,"count":16,"max":[0.25,0.5625,0.25],"min":[-0.25,0.1875,-0.25],"type":"VEC3"},{"bufferView":5,"componentType":5126,"count":16,"max":[0.8320503234863281,0.5547001957893372,0.8320503234863281],"min":[-0.8320503234863281,-1,-0.8320503234863281],"type":"VEC3"},{"bufferView":6,"componentType":5126,"count":16,"max":[0.6561843156814575,0.6951940059661865],"min":[0,0],"type":"VEC2"},{"bufferView":7,"componentType":5123,"count":18,"max":[15],"min":[0],"type":"SCALAR"},{"bufferView":8,"componentType":5126,"count":16,"max":[0.1875,0.8125,0.1875],"min":[-0.1875,0.4375,-0.1875],"type":"VEC3"},{"bufferView":9,"componentType":5126,"count":16,"max":[0.8944271802902222,0.4472135901451111,0.8944271802902222],"min":[-0.8944271802902222,-1,-0.8944271802902222],"type":"VEC3"},{"bufferView":10,"componentType":5126,"count":16,"max":[0.8668318390846252,0.9375],"min":[0,0],"type":"VEC2"},{"bufferView":11,"componentType":5123,"count":18,"max":[15],"min":[0],"type":"SCALAR"},{"bufferView":12,"componentType":5126,"count":16,"max":[0.125,1.0625,0.125],"min":[-0.125,0.6875,-0.125],"type":"VEC3"},{"bufferView":13,"componentType":5126,"count":16,"max":[0.9486833214759827,0.3162277638912201,0.9486833214759827],"min":[-0.9486833214759827,-1,-0.9486833214759827],"type":"VEC3"},{"bufferView":14,"componentType":5126,"count":16,"max":[0.9658413529396057,0.9885374307632446],"min":[0,0],"type":"VEC2"},{"bufferView":15,"componentType":5123,"count":18,"max":[15],"min":[0],"type":"SCALAR"}],"materials":[{"pbrMetallicRoughness":{"metallicFactor":0,"roughnessFactor":1,"baseColorTexture":{"index":0}},"alphaMode":"MASK","alphaCutoff":0.05,"doubleSided":true}],"textures":[{"sampler":0,"source":0}],"samplers":[{"magFilter":9728,"minFilter":9728,"wrapS":33071,"wrapT":33071}],"images":[{"mimeType":"image/png","uri":"data:image/png;base64,"}],"meshes":[{"primitives":[{"mode":4,"attributes":{"POSITION":0,"NORMAL":1,"TEXCOORD_0":2},"indices":3,"material":0}]},{"primitives":[{"mode":4,"attributes":{"POSITION":4,"NORMAL":5,"TEXCOORD_0":6},"indices":7,"material":0}]},{"primitives":[{"mode":4,"attributes":{"POSITION":8,"NORMAL":9,"TEXCOORD_0":10},"indices":11,"material":0}]},{"primitives":[{"mode":4,"attributes":{"POSITION":12,"NORMAL":13,"TEXCOORD_0":14},"indices":15,"material":0}]}]}