{"asset":{"version":"2.0","generator":"Blockbench 4.9.4 glTF exporter"},"scenes":[{"nodes":[17],"name":"blockbench_export"}],"scene":0,"nodes":[{"rotation":[0,0,-0.34202014332566877,0.9396926207859083],"translation":[0.00322384713930976,-0.000530555576266023,-0.019011806662509886],"name":"pyramid","mesh":0},{"translation":[0.3632812499999998,-0.54296875,0.6249999999999999],"name":"cuboid","mesh":1},{"translation":[0.3632812499999998,-0.54296875,0.6249999999999999],"name":"cuboid","mesh":2},{"rotation":[0.29396890060483805,0.316024734377359,0.008763256591404464,0.9020165508862992],"translation":[-0.27880740286068995,-0.32006180557626596,-0.2565118066625098],"name":"book","children":[1,2]},{"rotation":[0.25762130525940563,-0.6553513953794428,0.00931590609523053,0.7099711441631148],"translation":[-0.09943029073795781,0,0.0065118066625098866],"name":"lhand","children":[0,3]},{"rotation":[0,0.48098876891938763,0,0.8767267557075077],"translation":[-0.11004355640135205,0.831780555576266,0],"name":"lshoulder","children":[4]},{"translation":[0,0.0625,0],"name":"sphere","mesh":3},{"translation":[0,-0.3750000000000001,0],"name":"cuboid","mesh":4},{"translation":[0,-0.3750000000000001,0],"name":"cuboid","mesh":5},{"translation":[0,-0.3750000000000001,0],"name":"cuboid","mesh":6},{"translation":[4.478479327890899e-18,1.0752042397565034,-0.005351306866431408],"name":"head","children":[6,7,8,9]},{"translation":[-0.009877074442865924,-0.003912784425866511,-0.01426067689652754],"name":"pyramid","mesh":7},{"rotation":[0,0,0.3420201433256687,0.9396926207859084],"translation":[0.10625000000000004,0,0],"name":"rhand","children":[11]},{"translation":[0.07879355640135202,0.831780555576266,0],"name":"rshoulder","children":[12]},{"rotation":[0,0.3826834323650898,0,0.9238795325112867],"name":"pyramid","mesh":8},{"translation":[0,0.5,0],"name":"torso","children":[14]},{"name":"undead","children":[5,10,13,15]},{"children":[16]}],"bufferViews":[{"buffer":0,"byteOffset":0,"byteLength":144,"target":34962,"byteStride":12},{"buffer":0,"byteOffset":144,"byteLength":144,"target":34962,"byteStride":12},{"buffer":0,"byteOffset":288,"byteLength":96,"target":34962,"byteStride":8},{"buffer":0,"byteOffset":384,"byteLength":24,"target":34963},{"buffer":0,"byteOffset":408,"byteLength":672,"target":34962,"byteStride":12},{"buffer":0,"byteOffset":1080,"byteLength":672,"target":34962,"byteStride":12},{"buffer":0,"byteOffset":1752,"byteLength":448,"target":34962,"byteStride":8},{"buffer":0,"byteOffset":2200,"byteLength":168,"target":34963},{"buffer":0,"byteOffset":2368,"byteLength":672,"target":34962,"byteStride":12},{"buffer":0,"byteOffset":3040,"byteLength":672,"target":34962,"byteStride":12},{"buffer":0,"byteOffset":3712,"byteLength":448,"target":34962,"byteStride":8},{"buffer":0,"byteOffset":4160,"byteLength":168,"target":34963},{"buffer":0,"byteOffset":4328,"byteLength":1200,"target":34962,"byteStride":12},{"buffer":0,"byteOffset":5528,"byteLength":1200,"target":34962,"byteStride":12},{"buffer":0,"byteOffset":6728,"byteLength":800,"target":34962,"byteStride":8},{"buffer":0,"byteOffset":7528,"byteLength":276,"target":34963},{"buffer":0,"byteOffset":7804,"byteLength":288,"target":34962,"byteStride":12},{"buffer":0,"byteOffset":8092,"byteLength":288,"target":34962,"byteStride":12},{"buffer":0,"byteOffset":8380,"byteLength":192,"target":34962,"byteStride":8},{"buffer":0,"byteOffset":8572,"byteLength":72,"target":34963},{"buffer":0,"byteOffset":8644,"byteLength":288,"target":34962,"byteStride":12},{"buffer":0,"byteOffset":8932,"byteLength":288,"target":34962,"byteStride":12},{"buffer":0,"byteOffset":9220,"byteLength":192,"target":34962,"byteStride":8},{"buffer":0,"byteOffset":9412,"byteLength":72,"target":34963},{"buffer":0,"byteOffset":9484,"byteLength":288,"target":34962,"byteStride":12},{"buffer":0,"byteOffset":9772,"byteLength":288,"target":34962,"byteStride":12},{"buffer":0,"byteOffset":10060,"byteLength":192,"target":34962,"byteStride":8},{"buffer":0,"byteOffset":10252,"byteLength":72,"target":34963},{"buffer":0,"byteOffset":10324,"byteLength":144,"target":34962,"byteStride":12},{"buffer":0,"byteOffset":10468,"byteLength":144,"target":34962,"byteStride":12},{"buffer":0,"byteOffset":10612,"byteLength":96,"target":34962,"byteStride":8},{"buffer":0,"byteOffset":10708,"byteLength":24,"target":34963},{"buffer":0,"byteOffset":10732,"byteLength":528,"target":34962,"byteStride":12},{"buffer":0,"byteOffset":11260,"byteLength":528,"target":34962,"byteStride":12},{"buffer":0,"byteOffset":11788,"byteLength":352,"target":34962,"byteStride":8},{"buffer":0,"byteOffset":12140,"byteLength":120,"target":34963},{"buffer":0,"byteOffset":12260,"byteLength":8},{"buffer":0,"byteOffset":12268,"byteLength":24},{"buffer":0,"byteOffset":12292,"byteLength":36},{"buffer":0,"byteOffset":12328,"byteLength":108},{"buffer":0,"byteOffset":12436,"byteLength":36},{"buffer":0,"byteOffset":12472,"byteLength":144},{"buffer":0,"byteOffset":12616,"byteLength":36},{"buffer":0,"byteOffset":12652,"byteLength":144},{"buffer":0,"byteOffset":12796,"byteLength":36},{"buffer":0,"byteOffset":12832,"byteLength":144},{"buffer":0,"byteOffset":12976,"byteLength":16},{"buffer":0,"byteOffset":12992,"byteLength":48},{"buffer":0,"byteOffset":13040,"byteLength":8},{"buffer":0,"byteOffset":13048,"byteLength":24},{"buffer":0,"byteOffset":13072,"byteLength":8},{"buffer":0,"byteOffset":13080,"byteLength":32},{"buffer":0,"byteOffset":13112,"byteLength":16},{"buffer":0,"byteOffset":13128,"byteLength":48},{"buffer":0,"byteOffset":13176,"byteLength":20},{"buffer":0,"byteOffset":13196,"byteLength":80},{"buffer":0,"byteOffset":13276,"byteLength":20},{"buffer":0,"byteOffset":13296,"byteLength":60},{"buffer":0,"byteOffset":13356,"byteLength":8},{"buffer":0,"byteOffset":13364,"byteLength":32},{"buffer":0,"byteOffset":13396,"byteLength":8},{"buffer":0,"byteOffset":13404,"byteLength":24},{"buffer":0,"byteOffset":13428,"byteLength":16},{"buffer":0,"byteOffset":13444,"byteLength":64},{"buffer":0,"byteOffset":13508,"byteLength":12},{"buffer":0,"byteOffset":13520,"byteLength":36},{"buffer":0,"byteOffset":13556,"byteLength":20},{"buffer":0,"byteOffset":13576,"byteLength":80},{"buffer":0,"byteOffset":13656,"byteLength":20},{"buffer":0,"byteOffset":13676,"byteLength":60},{"buffer":0,"byteOffset":13736,"byteLength":16},{"buffer":0,"byteOffset":13752,"byteLength":64},{"buffer":0,"byteOffset":13816,"byteLength":24},{"buffer":0,"byteOffset":13840,"byteLength":96},{"buffer":0,"byteOffset":13936,"byteLength":20},{"buffer":0,"byteOffset":13956,"byteLength":80},{"buffer":0,"byteOffset":14036,"byteLength":16},{"buffer":0,"byteOffset":14052,"byteLength":64}],"buffers":[{"byteLength":14116,"uri":"data:application/octet-stream;base64,"}],"accessors":[{"bufferView":0,"componentType":5126,"count":12,"max":[0.11966539174318314,-0.0020104998257011175,0.16249999403953552],"min":[-0.13033461570739746,-0.5020105242729187,-0.08749999850988388],"type":"VEC3"},{"bufferView":1,"componentType":5126,"count":12,"max":[0.8864843845367432,1,0.4432421922683716],"min":[-0.8864843845367432,0.13297267258167267,-0.9805806875228882],"type":"VEC3"},{"bufferView":2,"componentType":5126,"count":12,"max":[0.6569138169288635,0.35937607288360596],"min":[0.47204914689064026,0.078125],"type":"VEC2"},{"bufferView":3,"componentType":5123,"count":12,"max":[11],"min":[0],"type":"SCALAR"},{"bufferView":4,"componentType":5126,"count":56,"max":[-0.21875,0.6875,-0.46875],"min":[-0.4375,0.46875,-0.78125],"type":"VEC3"},{"bufferView":5,"componentType":5126,"count":56,"max":[1,1,1],"min":[-1,-1,-1],"type":"VEC3"},{"bufferView":6,"componentType":5126,"count":56,"max":[0.328125,0.2890625],"min":[0.03046875074505806,0],"type":"VEC2"},{"bufferView":7,"componentType":5123,"count":84,"max":[55],"min":[0],"type":"SCALAR"},{"bufferView":8,"componentType":5126,"count":56,"max":[-0.24375000596046448,0.6625000238418579,-0.48124998807907104],"min":[-0.40625,0.5,-0.768750011920929],"type":"VEC3"},{"bufferView":9,"componentType":5126,"count":56,"max":[1,1,1],"min":[-1,-1,-1],"type":"VEC3"},{"bufferView":10,"componentType":5126,"count":56,"max":[0.484375,0.390625],"min":[0,0],"type":"VEC2"},{"bufferView":11,"componentType":5123,"count":84,"max":[55],"min":[0],"type":"SCALAR"},{"bufferView":12,"componentType":5126,"count":100,"max":[0.16875000298023224,0.15625,0.15625],"min":[-0.16875000298023224,-0.125,-0.15625],"type":"VEC3"},{"bufferView":13,"componentType":5126,"count":100,"max":[0.9876496195793152,0.9238795042037964,1],"min":[-0.9953696131706238,-0.9818550944328308,-1],"type":"VEC3"},{"bufferView":14,"componentType":5126,"count":100,"max":[0.24274218082427979,0.23134726285934448],"min":[0,0],"type":"VEC2"},{"bufferView":15,"componentType":5123,"count":138,"max":[99],"min":[0],"type":"SCALAR"},{"bufferView":16,"componentType":5126,"count":24,"max":[0.02500000037252903,0.34375,-0.11249999701976776],"min":[-0.02500000037252903,0.2562499940395355,-0.15000000596046448],"type":"VEC3"},{"bufferView":17,"componentType":5126,"count":24,"max":[0.9974586963653564,1,1],"min":[-0.9974586963653564,-1,-1],"type":"VEC3"},{"bufferView":18,"componentType":5126,"count":24,"max":[0.21717162430286407,0.234375],"min":[0.03125,0.03125],"type":"VEC2"},{"bufferView":19,"componentType":5123,"count":36,"max":[23],"min":[0],"type":"SCALAR"},{"bufferView":20,"componentType":5126,"count":24,"max":[0.07500000298023224,0.34375,-0.11249999701976776],"min":[0.02500000037252903,0.2562499940395355,-0.15000000596046448],"type":"VEC3"},{"bufferView":21,"componentType":5126,"count":24,"max":[1,1,1],"min":[-0.9899494647979736,-1,-1],"type":"VEC3"},{"bufferView":22,"componentType":5126,"count":24,"max":[0.25,0.265625],"min":[0.03281249850988388,0.03125],"type":"VEC2"},{"bufferView":23,"componentType":5123,"count":36,"max":[23],"min":[0],"type":"SCALAR"},{"bufferView":24,"componentType":5126,"count":24,"max":[-0.02500000037252903,0.34375,-0.11249999701976776],"min":[-0.07500000298023224,0.2562499940395355,-0.15000000596046448],"type":"VEC3"},{"bufferView":25,"componentType":5126,"count":24,"max":[0.9899494647979736,1,1],"min":[-1,-1,-1],"type":"VEC3"},{"bufferView":26,"componentType":5126,"count":24,"max":[0.25,0.265625],"min":[0,0.125],"type":"VEC2"},{"bufferView":27,"componentType":5123,"count":36,"max":[23],"min":[0],"type":"SCALAR"},{"bufferView":28,"componentType":5126,"count":12,"max":[0.13033461570739746,-0.0020104998257011175,0.16249999403953552],"min":[-0.11966539174318314,-0.5020105242729187,-0.08749999850988388],"type":"VEC3"},{"bufferView":29,"componentType":5126,"count":12,"max":[0.8864843845367432,1,0.4432421922683716],"min":[-0.8864843845367432,0.13297267258167267,-0.9805806875228882],"type":"VEC3"},{"bufferView":30,"componentType":5126,"count":12,"max":[0.65625,0.5386271476745605],"min":[0.12829914689064026,0.21875],"type":"VEC2"},{"bufferView":31,"componentType":5123,"count":12,"max":[11],"min":[0],"type":"SCALAR"},{"bufferView":32,"componentType":5126,"count":44,"max":[0.25,0.4105926752090454,0.25],"min":[-0.25,-0.5,-0.25],"type":"VEC3"},{"bufferView":33,"componentType":5126,"count":44,"max":[0.996444821357727,0.2695697844028473,0.99190354347229],"min":[-0.996444821357727,-0.830739438533783,-0.99190354347229],"type":"VEC3"},{"bufferView":34,"componentType":5126,"count":44,"max":[0.5415062308311462,0.6092020273208618],"min":[0.19286875426769257,0.1560453176498413],"type":"VEC2"},{"bufferView":35,"componentType":5123,"count":60,"max":[43],"min":[0],"type":"SCALAR"},{"bufferView":36,"componentType":5126,"count":2,"max":[2],"min":[0],"type":"SCALAR"},{"bufferView":37,"componentType":5126,"count":2,"max":[0,0,0],"min":[0,0,0],"type":"VEC3"},{"bufferView":38,"componentType":5126,"count":9,"max":[1],"min":[0],"type":"SCALAR"},{"bufferView":39,"componentType":5126,"count":9,"max":[0,0.01875000074505806,0],"min":[0,0,0],"type":"VEC3"},{"bufferView":40,"componentType":5126,"count":9,"max":[1],"min":[0],"type":"SCALAR"},{"bufferView":41,"componentType":5126,"count":9,"max":[0,0.04361938685178757,0,1],"min":[0,-0.04361938685178757,0,0.9990482330322266],"type":"VEC4"},{"bufferView":42,"componentType":5126,"count":9,"max":[1],"min":[0],"type":"SCALAR"},{"bufferView":43,"componentType":5126,"count":9,"max":[0.08189960569143295,0.029809020459651947,0.3420201539993286,0.9396926164627075],"min":[-0.08189960569143295,-0.029809020459651947,0.34071865677833557,0.9361168146133423],"type":"VEC4"},{"bufferView":44,"componentType":5126,"count":9,"max":[1],"min":[0],"type":"SCALAR"},{"bufferView":45,"componentType":5126,"count":9,"max":[0,0.5187732577323914,0,0.8968727588653564],"min":[0,0.44228869676589966,0,0.8549118638038635],"type":"VEC4"},{"bufferView":46,"componentType":5126,"count":4,"max":[0.8333333134651184],"min":[0],"type":"SCALAR"},{"bufferView":47,"componentType":5126,"count":4,"max":[0.03125,0.5,0],"min":[-0.051874998956918716,0.0625,0],"type":"VEC3"},{"bufferView":48,"componentType":5126,"count":2,"max":[0.8333333134651184],"min":[0],"type":"SCALAR"},{"bufferView":49,"componentType":5126,"count":2,"max":[1.7999999523162842,1,1.899999976158142],"min":[1,0.10000000149011612,1],"type":"VEC3"},{"bufferView":50,"componentType":5126,"count":2,"max":[0.8333333134651184],"min":[0],"type":"SCALAR"},{"bufferView":51,"componentType":5126,"count":2,"max":[0.5735764503479004,0,0,1],"min":[0,0,0,0.8191520571708679],"type":"VEC4"},{"bufferView":52,"componentType":5126,"count":4,"max":[0.8333333134651184],"min":[0],"type":"SCALAR"},{"bufferView":53,"componentType":5126,"count":4,"max":[0.11004355549812317,0.8317805528640747,0],"min":[0.028168557211756706,0.2067805528640747,0],"type":"VEC3"},{"bufferView":54,"componentType":5126,"count":5,"max":[1.0416666269302368],"min":[0],"type":"SCALAR"},{"bufferView":55,"componentType":5126,"count":5,"max":[0.9961947202682495,0,0,1],"min":[-0.258819043636322,0,0,-0.9848077297210693],"type":"VEC4"},{"bufferView":56,"componentType":5126,"count":5,"max":[1.0416666269302368],"min":[0],"type":"SCALAR"},{"bufferView":57,"componentType":5126,"count":5,"max":[4.4784794998636685e-18,1.2627042531967163,-0.0053513068705797195],"min":[4.4784794998636685e-18,0.13770423829555511,-0.0053513068705797195],"type":"VEC3"},{"bufferView":58,"componentType":5126,"count":2,"max":[0.8333333134651184],"min":[0],"type":"SCALAR"},{"bufferView":59,"componentType":5126,"count":2,"max":[0.07641176879405975,0.4809887707233429,0,0.8767267465591431],"min":[0,0.4791584610939026,-0.04192093387246132,0.8733905553817749],"type":"VEC4"},{"bufferView":60,"componentType":5126,"count":2,"max":[0.8333333134651184],"min":[0],"type":"SCALAR"},{"bufferView":61,"componentType":5126,"count":2,"max":[-0.11004355549812317,0.8317805528640747,0],"min":[-0.11004355549812317,0.2067805528640747,0],"type":"VEC3"},{"bufferView":62,"componentType":5126,"count":4,"max":[0.8333333134651184],"min":[0],"type":"SCALAR"},{"bufferView":63,"componentType":5126,"count":4,"max":[0.29396888613700867,0.3160247206687927,0.28128236532211304,0.9133197069168091],"min":[-0.649426281452179,0.14432136714458466,0.00876325648277998,0.6915902495384216],"type":"VEC4"},{"bufferView":64,"componentType":5126,"count":3,"max":[0.8333333134651184],"min":[0],"type":"SCALAR"},{"bufferView":65,"componentType":5126,"count":3,"max":[-0.1538074016571045,-0.3200618028640747,-0.19401180744171143],"min":[-0.2788074016571045,-0.5388118028640747,-0.2565118074417114],"type":"VEC3"},{"bufferView":66,"componentType":5126,"count":5,"max":[2],"min":[0],"type":"SCALAR"},{"bufferView":67,"componentType":5126,"count":5,"max":[0,0,0,1],"min":[-0.04361938685178757,0,0,0.9990482330322266],"type":"VEC4"},{"bufferView":68,"componentType":5126,"count":5,"max":[2],"min":[0],"type":"SCALAR"},{"bufferView":69,"componentType":5126,"count":5,"max":[0,0.03125,0],"min":[0,0,0],"type":"VEC3"},{"bufferView":70,"componentType":5126,"count":4,"max":[2],"min":[0],"type":"SCALAR"},{"bufferView":71,"componentType":5126,"count":4,"max":[0,0,0.15212339162826538,1],"min":[0,0,0,0.9883615374565125],"type":"VEC4"},{"bufferView":72,"componentType":5126,"count":6,"max":[2],"min":[0],"type":"SCALAR"},{"bufferView":73,"componentType":5126,"count":6,"max":[0.813797652721405,0.825943112373352,0.9537169337272644,0.9396926164627075],"min":[0,0,0.1710100769996643,0.15035289525985718],"type":"VEC4"},{"bufferView":74,"componentType":5126,"count":5,"max":[2],"min":[0],"type":"SCALAR"},{"bufferView":75,"componentType":5126,"count":5,"max":[0.30070579051971436,0,0,1],"min":[-0.06540312618017197,0,0,0.9537169337272644],"type":"VEC4"},{"bufferView":76,"componentType":5126,"count":4,"max":[2],"min":[0],"type":"SCALAR"},{"bufferView":77,"componentType":5126,"count":4,"max":[0.07641176879405975,0.4809887707233429,0,0.8767267465591431],"min":[0,0.4791584610939026,-0.04192093387246132,0.8733905553817749],"type":"VEC4"}],"materials":[{"pbrMetallicRoughness":{"metallicFactor":0,"roughnessFactor":1,"baseColorTexture":{"index":0}},"alphaMode":"MASK","alphaCutoff":0.05,"doubleSided":true}],"textures":[{"sampler":0,"source":0}],"samplers":[{"magFilter":9728,"minFilter":9728,"wrapS":33071,"wrapT":33071}],"images":[{"mimeType":"image/png","uri":"data:image/png;base64,"}],"meshes":[{"primitives":[{"mode":4,"attributes":{"POSITION":0,"NORMAL":1,"TEXCOORD_0":2},"indices":3,"material":0}]},{"primitives":[{"mode":4,"attributes":{"POSITION":4,"NORMAL":5,"TEXCOORD_0":6},"indices":7,"material":0}]},{"primitives":[{"mode":4,"attributes":{"POSITION":8,"NORMAL":9,"TEXCOORD_0":10},"indices":11,"material":0}]},{"primitives":[{"mode":4,"attributes":{"POSITION":12,"NORMAL":13,"TEXCOORD_0":14},"indices":15,"material":0}]},{"primitives":[{"mode":4,"attributes":{"POSITION":16,"NORMAL":17,"TEXCOORD_0":18},"indices":19,"material":0}]},{"primitives":[{"mode":4,"attributes":{"POSITION":20,"NORMAL":21,"TEXCOORD_0":22},"indices":23,"material":0}]},{"primitives":[{"mode":4,"attributes":{"POSITION":24,"NORMAL":25,"TEXCOORD_0":26},"indices":27,"material":0}]},{"primitives":[{"mode":4,"attributes":{"POSITION":28,"NORMAL":29,"TEXCOORD_0":30},"indices":31,"material":0}]},{"primitives":[{"mode":4,"attributes":{"POSITION":32,"NORMAL":33,"TEXCOORD_0":34},"indices":35,"material":0}]}],"animations":[{"name":"idle","samplers":[{"input":36,"output":37,"interpolation":"LINEAR"}],"channels":[{"sampler":0,"target":{"node":16,"path":"translation"}}]},{"name":"walk","samplers":[{"input":38,"output":39,"interpolation":"LINEAR"},{"input":40,"output":41,"interpolation":"LINEAR"},{"input":42,"output":43,"interpolation":"LINEAR"},{"input":44,"output":45,"interpolation":"LINEAR"}],"channels":[{"sampler":0,"target":{"node":16,"path":"translation"}},{"sampler":1,"target":{"node":13,"path":"rotation"}},{"sampler":2,"target":{"node":12,"path":"rotation"}},{"sampler":3,"target":{"node":5,"path":"rotation"}}]},{"name":"death","samplers":[{"input":46,"output":47,"interpolation":"LINEAR"},{"input":48,"output":49,"interpolation":"LINEAR"},{"input":50,"output":51,"interpolation":"LINEAR"},{"input":52,"output":53,"interpolation":"LINEAR"},{"input":54,"output":55,"interpolation":"LINEAR"},{"input":56,"output":57,"interpolation":"LINEAR"},{"input":58,"output":59,"interpolation":"LINEAR"},{"input":60,"output":61,"interpolation":"LINEAR"},{"input":62,"output":63,"interpolation":"LINEAR"},{"input":64,"output":65,"interpolation":"LINEAR"}],"channels":[{"sampler":0,"target":{"node":15,"path":"translation"}},{"sampler":1,"target":{"node":15,"path":"scale"}},{"sampler":2,"target":{"node":13,"path":"rotation"}},{"sampler":3,"target":{"node":13,"path":"translation"}},{"sampler":4,"target":{"node":10,"path":"rotation"}},{"sampler":5,"target":{"node":10,"path":"translation"}},{"sampler":6,"target":{"node":5,"path":"rotation"}},{"sampler":7,"target":{"node":5,"path":"translation"}},{"sampler":8,"target":{"node":3,"path":"rotation"}},{"sampler":9,"target":{"node":3,"path":"translation"}}]},{"name":"attack","samplers":[{"input":66,"output":67,"interpolation":"LINEAR"},{"input":68,"output":69,"interpolation":"LINEAR"},{"input":70,"output":71,"interpolation":"LINEAR"},{"input":72,"output":73,"interpolation":"LINEAR"},{"input":74,"output":75,"interpolation":"LINEAR"},{"input":76,"output":77,"interpolation":"LINEAR"}],"channels":[{"sampler":0,"target":{"node":16,"path":"rotation"}},{"sampler":1,"target":{"node":16,"path":"translation"}},{"sampler":2,"target":{"node":13,"path":"rotation"}},{"sampler":3,"target":{"node":12,"path":"rotation"}},{"sampler":4,"target":{"node":10,"path":"rotation"}},{"sampler":5,"target":{"node":5,"path":"rotation"}}]}]}